<svg width="101" height="101" viewBox="0 0 101 101" fill="none" xmlns="http://www.w3.org/2000/svg">
<rect x="38" y="29" width="56" height="56" rx="10" fill="#B81034"/>
<path d="M66.2812 12.625H34.7188C31.2325 12.625 28.4062 15.4512 28.4062 18.9375V82.0625C28.4062 85.5488 31.2325 88.375 34.7188 88.375H66.2812C69.7675 88.375 72.5938 85.5488 72.5938 82.0625V18.9375C72.5938 15.4512 69.7675 12.625 66.2812 12.625Z" stroke="white" stroke-width="1.57812"/>
<path d="M44.1875 18.9375H56.8125" stroke="white" stroke-width="1.57812"/>
<path d="M47.3438 82.0625H53.6562" stroke="white" stroke-width="1.57812"/>
<path d="M50.5 54.682C53.9689 54.682 56.7809 50.9373 56.7809 46.3179C56.7809 41.6986 53.9689 37.9539 50.5 37.9539C47.0311 37.9539 44.2191 41.6986 44.2191 46.3179C44.2191 50.9373 47.0311 54.682 50.5 54.682Z" stroke="white" stroke-width="1.57812"/>
<path d="M45.2449 51.2578C45.2449 51.2578 39.9739 52.6623 38.9324 55.4398C38.0249 57.8937 37.6903 60.5224 37.9539 63.1253H63.125C63.3665 60.5461 63.0212 57.9456 62.115 55.5188C61.105 52.7413 55.8025 51.3367 55.8025 51.3367" stroke="white" stroke-width="1.57812"/>
</svg>
