<svg width="35" height="35" viewBox="0 0 35 35" fill="none" xmlns="http://www.w3.org/2000/svg">
<circle cx="17.5" cy="17.5" r="17.5" fill="#B81034"/>
<path d="M24 18.5C24.2761 18.5 24.5 18.2761 24.5 18C24.5 17.7239 24.2761 17.5 24 17.5V18.5ZM11.6464 17.6464C11.4512 17.8417 11.4512 18.1583 11.6464 18.3536L14.8284 21.5355C15.0237 21.7308 15.3403 21.7308 15.5355 21.5355C15.7308 21.3403 15.7308 21.0237 15.5355 20.8284L12.7071 18L15.5355 15.1716C15.7308 14.9763 15.7308 14.6597 15.5355 14.4645C15.3403 14.2692 15.0237 14.2692 14.8284 14.4645L11.6464 17.6464ZM24 17.5H12V18.5H24V17.5Z" fill="white"/>
</svg>
