<svg width="40" height="40" viewBox="0 0 40 40" fill="none" xmlns="http://www.w3.org/2000/svg">
<path d="M12.7113 18.965C10.0997 18.965 8.33301 17.145 8.33301 14.4483C8.33301 12.0217 10.3597 10 13.1047 10C16.1113 10 18.333 12.4267 18.333 16.1333C18.333 24.5583 12.1897 27.9283 8.33301 28.3333V24.6267C10.948 24.155 13.888 21.5267 14.0197 18.6267C13.888 18.6933 13.3663 18.965 12.7113 18.965ZM26.0447 18.965C23.4313 18.965 21.6663 17.145 21.6663 14.4483C21.6663 12.0217 23.693 10 26.438 10C29.4447 10 31.6663 12.4267 31.6663 16.1333C31.6663 24.5583 25.523 27.9283 21.6663 28.3333V24.6267C24.2813 24.155 27.2213 21.5267 27.353 18.6267C27.2213 18.6933 26.6997 18.965 26.0447 18.965Z" fill="#AEAEAE"/>
</svg>
