<svg width="40" height="40" viewBox="0 0 40 40" fill="none" xmlns="http://www.w3.org/2000/svg">
<path d="M27.2863 19.3683C29.903 19.3683 31.6663 21.1883 31.6663 23.885C31.6663 26.3117 29.6397 28.3333 26.8947 28.3333C23.888 28.3333 21.6663 25.9067 21.6663 22.2C21.6663 13.775 27.8097 10.405 31.6663 10V13.7067C29.0513 14.1783 26.1113 16.8067 25.9797 19.7067C26.1113 19.64 26.633 19.3683 27.2863 19.3683ZM13.9547 19.3683C16.568 19.3683 18.333 21.1883 18.333 23.885C18.333 26.3117 16.3063 28.3333 13.5613 28.3333C10.5547 28.3333 8.33301 25.9067 8.33301 22.2C8.33301 13.775 14.4763 10.405 18.333 10V13.7067C15.718 14.1783 12.778 16.8067 12.6463 19.7067C12.778 19.64 13.2997 19.3683 13.9547 19.3683Z" fill="#AEAEAE"/>
</svg>
