<svg width="638" height="115" viewBox="0 0 638 115" fill="none" xmlns="http://www.w3.org/2000/svg">
<path d="M0 0.141307V27.873L115.968 27.9243V0.141307H0Z" fill="#B81034"/>
<path d="M520.713 114.765H488.473L454.291 56.2337L420.504 114.765H387.959L399.86 94.339L454.291 0.320973L520.713 114.765Z" fill="#B81034"/>
<path d="M638 45.3465H583.01V71.9355H638V45.3465Z" fill="#B81034"/>
<path d="M386.551 53.7302C387.172 74.4263 377.986 97.3819 355.795 108.847C347.601 112.988 338.55 115.096 329.391 114.997H271.255V38.7346L298.23 38.8501V86.9312H331.295C354.513 86.0068 358.003 68.0326 358.447 57.8258C358.789 50.1867 354.361 36.7574 341.445 31.1469C336.454 29.045 331.092 27.9922 325.687 28.0527H271.255V0.102783H330.419C365.641 1.5664 385.777 28.6561 386.551 53.7302Z" fill="#B81034"/>
<path d="M58.2756 38.5162H0V58.9555H0.0634386V114.881H26.7969V66.5175H58.2756V38.5162Z" fill="#B81034"/>
<path d="M251.652 27.8858V0H136.535V27.8344L251.652 27.8858Z" fill="#B81034"/>
<path d="M163.738 86.9312L163.763 66.2865H213.792V38.542L136.408 38.5676L136.459 114.958L251.932 114.997V86.9312H163.738Z" fill="#B81034"/>
<path d="M592.906 82.3991C588.065 85.6083 582.402 87.3132 576.615 87.3036C572.783 87.385 568.973 86.6915 565.409 85.2637C561.845 83.836 558.598 81.7028 555.86 78.989C553.121 76.2753 550.945 73.0357 549.46 69.4601C547.974 65.8844 547.209 62.0447 547.209 58.166C547.209 54.2873 547.974 50.4476 549.46 46.872C550.945 43.2963 553.121 40.0567 555.86 37.343C558.598 34.6293 561.845 32.496 565.409 31.0683C568.973 29.6406 572.783 28.9471 576.615 29.0285C582.402 29.0188 588.065 30.7238 592.906 33.9329H627.735C623.093 24.2095 615.833 16.0098 606.789 10.2771C597.746 4.5444 587.286 1.51167 576.615 1.52788C545.428 1.52788 520.04 26.9358 520.04 58.1596C520.04 89.3834 545.415 114.804 576.615 114.804C587.286 114.82 597.746 111.788 606.789 106.055C615.833 100.322 623.093 92.1225 627.735 82.3991H592.906Z" fill="#B81034"/>
</svg>
