<svg width="406" height="81" viewBox="0 0 406 81" fill="none" xmlns="http://www.w3.org/2000/svg">
<path d="M234.395 80.4977H234.4C240.837 80.5666 247.198 79.1002 252.958 76.2199C268.537 68.2516 275.007 52.2902 274.569 37.8599C274.026 20.4471 259.895 1.59661 235.115 0.572395H193.525V19.2589H231.755C235.669 19.2159 239.551 19.9705 243.164 21.4767L243.169 21.4788C252.597 25.5324 255.82 35.2178 255.57 40.7514C255.57 40.7516 255.57 40.7519 255.57 40.7521L255.07 40.7294L234.395 80.4977ZM234.395 80.4977H193.525M234.395 80.4977H193.525M193.525 80.4977V27.7847L211.72 27.8619L193.525 80.4977ZM322.841 39.3562L298.943 80.3348H276.946L284.971 66.7011L284.972 66.6999L323.274 1.21549L369.666 80.3348H347.882L323.704 39.354L323.271 38.6199L322.841 39.3562ZM0.545143 41.5252V41.0252H0.5V27.6288H40.9689V46.3515H19.0686H18.5686V46.8515V80.4163H0.545143V41.5252ZM116.016 61.2292L116.015 61.7298H116.516H178.774V80.4976L97.6035 80.4708L97.5681 27.6649L151.634 27.6471V46.1888H116.534H116.034L116.034 46.6881L116.016 61.2292ZM410.318 1.57616L410.319 1.57616C417.819 1.56489 425.169 3.67445 431.525 7.66218C437.654 11.5082 442.618 16.9505 445.89 23.4005H422.06C418.563 21.1406 414.487 19.9403 410.323 19.9461C407.532 19.8882 404.756 20.3886 402.16 21.4181C399.562 22.4483 397.195 23.9875 395.199 25.9455C393.202 27.9035 391.616 30.2409 390.534 32.8207C389.451 35.4004 388.893 38.1707 388.893 40.9691C388.893 43.7675 389.451 46.5378 390.534 49.1175C391.616 51.6973 393.202 54.0347 395.199 55.9927C397.195 57.9507 399.562 59.49 402.16 60.5201C404.756 61.5496 407.531 62.05 410.323 61.9921C414.487 61.9979 418.563 60.7977 422.06 58.5377H445.89C442.618 64.9877 437.654 70.43 431.525 74.276C425.169 78.2638 417.819 80.3733 410.319 80.3621H410.318C388.389 80.3621 370.56 62.6767 370.56 40.9646C370.56 19.2527 388.398 1.57616 410.318 1.57616ZM82.0225 19.1682L0.5 19.1325V0.599529H82.0225V19.1682ZM415.37 50.1676V32.4397H453.5V50.1676H415.37ZM97.658 0.5H178.575V19.1411L97.658 19.1053V0.5Z" stroke="#B81034"/>
</svg>
