<svg width="68" height="68" viewBox="0 0 68 68" fill="none" xmlns="http://www.w3.org/2000/svg">
<path d="M68 34C68 52.7777 52.7777 68 34 68C15.2223 68 0 52.7777 0 34C0 15.2223 15.2223 0 34 0C52.7777 0 68 15.2223 68 34ZM7.66331 34C7.66331 48.5453 19.4546 60.3367 34 60.3367C48.5453 60.3367 60.3367 48.5453 60.3367 34C60.3367 19.4546 48.5453 7.66331 34 7.66331C19.4546 7.66331 7.66331 19.4546 7.66331 34Z" fill="#D5D7DD"/>
<path d="M34 3.83166C34 1.71549 32.2791 -0.0223215 30.1763 0.215656C24.39 0.870526 18.8457 3.00393 14.0905 6.43892C8.29593 10.6248 3.96805 16.5306 1.72197 23.3169C-0.524107 30.1032 -0.574118 37.4248 1.57905 44.2412C3.73221 51.0576 7.97901 57.0219 13.7159 61.2865C19.4528 65.5512 26.3878 67.8992 33.5355 67.9968C40.6832 68.0945 47.6799 65.9368 53.5311 61.8305C59.3824 57.7241 63.7905 51.8781 66.1291 45.1231C68.0481 39.5798 68.4934 33.6559 67.4531 27.9263C67.0751 25.8442 64.9151 24.697 62.8887 25.3068C60.8623 25.9166 59.7439 28.054 60.0534 30.1474C60.6702 34.3184 60.279 38.5964 58.8875 42.616C57.076 47.8485 53.6614 52.3769 49.129 55.5577C44.5965 58.7385 39.1769 60.4099 33.6402 60.3342C28.1036 60.2586 22.7316 58.4398 18.2878 55.1364C13.8439 51.8329 10.5543 47.2129 8.88646 41.9329C7.2186 36.6529 7.25734 30.9815 8.99717 25.7248C10.737 20.468 14.0894 15.8934 18.578 12.651C22.0261 10.1601 26.0099 8.55284 30.1817 7.94154C32.2755 7.63473 34 5.94782 34 3.83166Z" fill="#B81034"/>
</svg>
