<svg width="68" height="68" viewBox="0 0 68 68" fill="none" xmlns="http://www.w3.org/2000/svg">
<path d="M68 34C68 52.7777 52.7777 68 34 68C15.2223 68 0 52.7777 0 34C0 15.2223 15.2223 0 34 0C52.7777 0 68 15.2223 68 34ZM7.66331 34C7.66331 48.5453 19.4546 60.3367 34 60.3367C48.5453 60.3367 60.3367 48.5453 60.3367 34C60.3367 19.4546 48.5453 7.66331 34 7.66331C19.4546 7.66331 7.66331 19.4546 7.66331 34Z" fill="#D5D7DD"/>
<path d="M34 3.83166C34 1.71549 32.2791 -0.0223075 30.1764 0.215676C25.9163 0.697825 21.7739 1.98281 17.9725 4.01468C13.0414 6.65041 8.83641 10.4616 5.73003 15.1106C2.62366 19.7596 0.711766 25.103 0.163719 30.6674C-0.384327 36.2318 0.448385 41.8455 2.5881 47.0112C4.72781 52.177 8.10847 56.7352 12.4306 60.2824C16.7528 63.8295 21.883 66.2559 27.3669 67.3467C32.8508 68.4375 38.5191 68.159 43.8697 66.536C47.9944 65.2848 51.8321 63.2642 55.1854 60.5928C56.8406 59.2743 56.8286 56.8286 55.3322 55.3322C53.8359 53.8359 51.4237 53.8624 49.7262 55.126C47.2956 56.9353 44.5631 58.3175 41.6451 59.2026C37.5005 60.4599 33.1098 60.6756 28.862 59.8306C24.6141 58.9857 20.6402 57.1062 17.2922 54.3585C13.9442 51.6109 11.3255 48.08 9.66807 44.0786C8.01064 40.0772 7.36561 35.7288 7.79013 31.4186C8.21465 27.1083 9.69562 22.9693 12.1018 19.3681C14.5081 15.7669 17.7653 12.8148 21.585 10.7731C24.2742 9.33571 27.1837 8.38085 30.1818 7.94155C32.2756 7.63475 34 5.94782 34 3.83166Z" fill="#B81034"/>
</svg>
