<svg width="638" height="115" viewBox="0 0 638 115" fill="none" xmlns="http://www.w3.org/2000/svg">
<path d="M329.391 114.497H329.397C338.474 114.595 347.445 112.506 355.568 108.402C377.547 97.0449 386.668 74.2969 386.051 53.7452C385.284 28.9145 365.341 2.05953 330.409 0.602783H271.755V27.5527H325.684C331.157 27.4919 336.586 28.558 341.639 30.686L341.644 30.6882C354.798 36.4019 359.295 50.0584 358.946 57.8475C358.946 57.8477 358.946 57.8479 358.946 57.8482L358.447 57.8258L329.391 114.497ZM329.391 114.497H271.755M329.391 114.497H271.755M576.616 2.02788L576.615 2.02788C545.705 2.02788 520.54 27.2115 520.54 58.1596C520.54 89.1079 545.692 114.304 576.616 114.304C587.192 114.32 597.558 111.315 606.521 105.633C615.262 100.092 622.323 92.225 626.936 82.8991H593.056C588.163 86.1077 582.454 87.8122 576.62 87.8036C572.722 87.8856 568.847 87.1799 565.223 85.7279C561.597 84.2752 558.294 82.1048 555.508 79.3442C552.722 76.5836 550.508 73.2884 548.998 69.6519C547.487 66.0153 546.709 62.1104 546.709 58.166C546.709 54.2216 547.487 50.3167 548.998 46.6801C550.508 43.0436 552.722 39.7484 555.508 36.9878C558.294 34.2272 561.597 32.0568 565.223 30.6041C568.847 29.1521 572.722 28.4464 576.62 28.5285C576.622 28.5285 576.624 28.5286 576.626 28.5286L576.615 29.0285C582.402 29.0188 588.065 30.7238 592.906 33.9329L576.616 2.02788ZM576.616 2.02788C587.192 2.01182 597.558 5.01741 606.521 10.6994C615.262 16.2403 622.323 24.107 626.936 33.4329H593.056L576.616 2.02788ZM271.755 114.497V39.2367L297.73 39.348L271.755 114.497ZM453.858 55.9837L420.215 114.265H388.829L400.292 94.5908L400.293 94.5896L454.292 1.31797L519.845 114.265H488.76L454.723 55.9815L454.289 55.2379L453.858 55.9837ZM0.563439 58.9555V58.4555H0.5V39.0162H57.7756V66.0175H26.7969H26.2969V66.5175V114.381H0.563439V58.9555ZM163.238 86.9306L163.237 87.4312H163.738H251.432V114.497L136.958 114.458L136.908 39.0675L213.292 39.0421V65.7865H163.763H163.264L163.263 66.2859L163.238 86.9306ZM115.468 27.4241L0.5 27.3732V0.641307H115.468V27.4241ZM583.51 71.4355V45.8465H637.5V71.4355H583.51ZM137.035 0.5H251.152V27.3856L137.035 27.3347V0.5Z" stroke="#B81034"/>
</svg>
