<svg width="39" height="27" viewBox="0 0 39 27" fill="none" xmlns="http://www.w3.org/2000/svg">
<path d="M37.8249 1.21202C37.7708 1.15233 37.7068 1.10423 37.6352 1.06815M37.8249 1.21202C37.826 1.21313 37.8271 1.21391 37.8283 1.21469C37.8295 1.21547 37.8307 1.21625 37.8317 1.21736L37.6352 1.06815M37.8249 1.21202L38.0101 1.04416C38.0054 1.03887 38.0005 1.03365 37.9956 1.02849M37.8249 1.21202L38.0048 1.03848C37.9937 1.02698 37.9835 1.01867 37.9764 1.01334L37.9684 1.00761L37.9702 1.00882C37.9724 1.01037 37.9759 1.01277 37.98 1.01582C37.9844 1.01915 37.9897 1.02336 37.9956 1.02849M37.6352 1.06815C37.6324 1.06681 37.6299 1.06525 37.6274 1.06369M37.6352 1.06815L37.6274 1.06369M37.9956 1.02849C37.9254 0.954637 37.8442 0.894517 37.755 0.848612M37.9956 1.02849C38.0007 1.03295 38.0062 1.0381 38.0119 1.04399L38.0168 1.04917L38.0215 1.05464C38.0322 1.06704 38.0404 1.07898 38.0467 1.08934M37.755 0.848612L37.6086 25.9461M37.755 0.848612C37.7537 0.847813 37.7522 0.84694 37.7507 0.846052C37.7452 0.842783 37.7373 0.838372 37.7277 0.83376L37.7277 0.833748L37.7254 0.832667C37.6282 0.787351 37.5255 0.762966 37.422 0.755363M37.755 0.848612L37.422 0.755363M37.755 0.848612C37.7525 0.847345 37.75 0.846088 37.7476 0.844842L37.7476 0.844798L37.7431 0.842669C37.7447 0.843416 37.7462 0.844147 37.7476 0.844851C37.7523 0.847234 37.7559 0.84931 37.7582 0.850673C37.7607 0.852172 37.7627 0.853429 37.761 0.852331C37.7604 0.852006 37.7581 0.850514 37.755 0.848612ZM38.0467 1.08934C38.0413 1.08256 38.0358 1.07585 38.0303 1.06923M38.0467 1.08934C38.0498 1.09437 38.0524 1.09903 38.0546 1.10318C38.0579 1.10938 38.0604 1.11464 38.062 1.11812L38.0635 1.12149C38.0624 1.11914 38.0604 1.11499 38.0577 1.10988C38.0523 1.0997 38.0436 1.08504 38.0303 1.06923M38.0467 1.08934C38.1079 1.16621 38.1575 1.25328 38.1923 1.34934M38.0303 1.06923L38.0303 1.06922L38.0289 1.06766C38.0294 1.06819 38.0298 1.06871 38.0303 1.06923ZM38.1923 1.34934C38.1918 1.348 38.1913 1.34664 38.1908 1.34527L37.9575 1.43517L38.1927 1.35036C38.1926 1.35002 38.1924 1.34968 38.1923 1.34934ZM38.1923 1.34934C38.1977 1.36398 38.2012 1.37642 38.2026 1.38148L38.2027 1.38179L38.2035 1.38487L38.2036 1.38529L38.204 1.38638L38.204 1.38639C38.2302 1.46899 38.25 1.56359 38.25 1.66768V25.3314C38.25 25.4347 38.2303 25.5283 38.2051 25.6093L38.205 25.6096L38.2047 25.6104L38.2043 25.612L38.2012 25.6227C38.1988 25.6305 38.1951 25.6422 38.1895 25.6559C38.1548 25.7497 38.1058 25.8351 38.0457 25.9105C38.0397 25.9204 38.0315 25.9323 38.0207 25.9449L38.016 25.9504L38.0109 25.9557C38.0048 25.962 37.9994 25.967 37.9956 25.9705C37.9667 26.0009 37.9374 26.0253 37.9183 26.0412L37.9181 26.0414L37.9171 26.0422C37.9171 26.0422 37.9171 26.0423 37.917 26.0423C37.9169 26.0424 37.9163 26.0429 37.9153 26.0438L37.9069 26.0514C37.9 26.0576 37.8857 26.0705 37.8679 26.0834L37.8658 26.0849C37.8277 26.112 37.7892 26.1324 37.7625 26.1463L37.7601 26.1478L37.7549 26.1509C37.7478 26.1552 37.731 26.1653 37.7102 26.1745M37.7102 26.1745L37.6086 25.9461M37.7102 26.1745C37.7103 26.1745 37.7105 26.1744 37.7106 26.1743L37.6086 25.9461M37.7102 26.1745C37.6013 26.2232 37.4813 26.25 37.3558 26.25H1.64381C1.51817 26.25 1.39928 26.2227 1.2923 26.1758M37.6086 25.9461C37.5309 25.9808 37.4455 26 37.3558 26H1.64381C1.55411 26 1.4687 25.9804 1.39101 25.9461M1.2923 26.1758C1.29397 26.1765 1.29568 26.1772 1.29743 26.1779L1.39101 25.9461M1.2923 26.1758C1.28002 26.1706 1.27009 26.1653 1.26315 26.1614C1.25866 26.1589 1.25463 26.1565 1.25166 26.1547M1.2923 26.1758C1.29155 26.1755 1.2908 26.1751 1.29004 26.1748L1.39101 25.9461M1.39101 25.9461L1.25166 26.1547M1.25166 26.1547C1.25445 26.1561 1.25719 26.1574 1.2599 26.1587M1.25166 26.1547C1.24962 26.1535 1.24807 26.1525 1.24724 26.152C1.24371 26.1498 1.24556 26.1509 1.24726 26.1519C1.24923 26.1531 1.25367 26.1557 1.2599 26.1587M1.25166 26.1547C1.21595 26.1371 1.17403 26.1145 1.13204 26.0841L1.27856 25.8815L1.13268 26.0845C1.11496 26.0718 1.10089 26.0591 1.09524 26.0539L1.09481 26.0535L1.0901 26.0493M1.25166 26.1547L1.24722 25.8548C1.22319 25.8352 1.20001 25.8152 1.17898 25.7924M1.2599 26.1587L1.25988 26.1588L1.26389 26.1606C1.26249 26.16 1.26116 26.1593 1.2599 26.1587ZM1.0901 26.0493L1.09238 26.0511C1.09072 26.0498 1.08961 26.0488 1.08926 26.0485C1.0891 26.0484 1.08911 26.0484 1.08929 26.0485L1.0901 26.0493ZM1.0901 26.0493L1.08921 26.0486L1.08923 26.0485C1.0653 26.029 1.03603 26.0043 1.00677 25.9741M1.00677 25.9741C1.01287 25.9795 1.018 25.9835 1.01948 25.9847L1.01657 25.9823C1.01289 25.9793 1.00644 25.9737 0.998995 25.9659L1.17898 25.7924M1.00677 25.9741C1.00302 25.9703 0.999268 25.9663 0.99553 25.9623L1.17898 25.7924M1.00677 25.9741C1.00628 25.9737 1.00578 25.9733 1.00529 25.9728C0.998019 25.9663 0.9883 25.9569 0.978024 25.9446C0.977749 25.9443 0.977475 25.9439 0.977199 25.9436L1.16997 25.7844C1.17137 25.7861 1.17304 25.7874 1.17474 25.7888C1.17616 25.7899 1.17762 25.791 1.17898 25.7924M0.937528 1.11982C0.937608 1.11965 0.937694 1.11946 0.937786 1.11927L0.937528 1.11982ZM0.937528 1.11982L0.936827 1.12135C0.937029 1.12091 0.937275 1.12037 0.937528 1.11982ZM37.422 0.755363L37.4221 0.755372C37.4264 0.755944 37.4249 0.755749 37.4248 0.755743C37.4239 0.755637 37.4213 0.755324 37.4175 0.75505C37.4167 0.754986 37.4158 0.754925 37.4148 0.754869L37.4175 0.755029V0.755044C37.419 0.755147 37.4205 0.755253 37.422 0.755363ZM24.3687 13.0499L24.1814 12.8844C24.16 12.9086 24.1451 12.9334 24.1362 12.95L19.5002 17.3445L3.9307 2.58581H35.0697L24.3429 12.754C24.3094 12.7751 24.235 12.823 24.1804 12.8855L24.3687 13.0499ZM24.3687 13.0499C24.3609 13.0587 24.356 13.069 24.3511 13.0793C24.347 13.0878 24.343 13.0962 24.3374 13.1038M24.3687 13.0499C24.398 13.0164 24.4333 12.9936 24.4687 12.9707L24.3374 13.1038M24.3374 13.1038L19.5002 17.6889L24.3374 13.1038ZM37.6274 1.06369C37.625 1.06214 37.6225 1.06058 37.6197 1.05924L37.6274 1.06369ZM0.808012 25.6526C0.843742 25.7507 0.895075 25.8392 0.957615 25.9166L0.988657 1.04389C0.973409 1.05972 0.962293 1.07524 0.954356 1.08807C0.893133 1.16478 0.84296 1.25219 0.807987 1.34851C0.802227 1.36394 0.79864 1.37705 0.797117 1.38261L0.795695 1.38784C0.769686 1.47019 0.75 1.56445 0.75 1.66813V25.3323C0.75 25.4379 0.770491 25.5336 0.797022 25.6168L0.79699 25.6168L0.797404 25.618C0.797515 25.6184 0.79765 25.6189 0.797812 25.6195L0.798018 25.6202C0.799129 25.6244 0.802041 25.6351 0.806029 25.6469L0.80596 25.647L0.808012 25.6526ZM38.0299 25.9298C38.0301 25.9296 38.0303 25.9294 38.0304 25.9291L38.0285 25.9315L38.0299 25.9298ZM37.3993 0.753004C37.3915 0.751925 37.3755 0.75 37.3566 0.75H1.64424C1.63232 0.75 1.62215 0.750726 1.61457 0.751466C1.60782 0.752124 1.60211 0.752902 1.59917 0.753316C1.59537 0.753646 1.59207 0.753996 1.58943 0.754296L1.58115 0.755316C1.47712 0.76284 1.37378 0.787446 1.27651 0.83248C1.26617 0.83714 1.25789 0.841648 1.25215 0.844946L1.25011 0.846165C1.15916 0.892111 1.07713 0.952884 1.0067 1.02688C1.00088 1.03186 0.994806 1.03751 0.988657 1.04389L37.3993 0.753004ZM1.04846 0.997637C1.04901 0.997325 1.04923 0.997197 1.04894 0.997364L1.04846 0.997637ZM24.8595 14.7625L35.0656 24.4137H3.91767L14.0796 14.7046L18.8939 19.2681L18.8939 19.2681C19.0641 19.4294 19.2813 19.5117 19.5002 19.5117C19.7191 19.5117 19.9364 19.4295 20.1064 19.2678L24.8595 14.7625ZM0.941931 25.8884C0.941484 25.8875 0.941169 25.8868 0.941192 25.8869L0.941307 25.8871L0.941931 25.8884ZM2.53806 23.2239V3.76444L12.7617 13.4555L2.53806 23.2239ZM36.4624 23.2387L26.1779 13.5129L36.4624 3.76443V23.2387Z" fill="#B81034" stroke="#B81034" stroke-width="0.5"/>
</svg>
