<svg width="141" height="141" viewBox="0 0 141 141" fill="none" xmlns="http://www.w3.org/2000/svg">
<rect x="0.75" y="0.25" width="140.25" height="140.25" rx="70.125" fill="#333333"/>
<rect x="61.8417" y="58.1582" width="33.2083" height="33.2083" rx="4.49651" fill="#B81034"/>
<path d="M82.5625 42.25H59.4375C56.8832 42.25 54.8125 44.3207 54.8125 46.875V93.125C54.8125 95.6793 56.8832 97.75 59.4375 97.75H82.5625C85.1168 97.75 87.1875 95.6793 87.1875 93.125V46.875C87.1875 44.3207 85.1168 42.25 82.5625 42.25Z" stroke="white" stroke-width="0.876736"/>
<path d="M66.375 46.875H75.625" stroke="white" stroke-width="0.876736"/>
<path d="M68.6875 93.125H73.3125" stroke="white" stroke-width="0.876736"/>
<path d="M70.9999 73.0639C73.5415 73.0639 75.6018 70.3202 75.6018 66.9357C75.6018 63.5513 73.5415 60.8076 70.9999 60.8076C68.4584 60.8076 66.3981 63.5513 66.3981 66.9357C66.3981 70.3202 68.4584 73.0639 70.9999 73.0639Z" stroke="white" stroke-width="0.876736"/>
<path d="M67.1497 70.5552C67.1497 70.5552 63.2878 71.5842 62.5247 73.6192C61.8599 75.4171 61.6147 77.3431 61.8078 79.2502H80.25C80.4269 77.3604 80.1739 75.4551 79.51 73.6771C78.77 71.6421 74.885 70.613 74.885 70.613" stroke="white" stroke-width="0.876736"/>
<path d="M126.776 71.2982L135 71.9658L134.889 73.3364L131.454 73.0575L131.329 74.5974L134.545 77.5667L134.423 79.0726L130.949 75.9121C130.813 76.1963 130.605 76.4463 130.326 76.6621C130.048 76.878 129.654 77.1128 129.145 77.3668L126.165 78.8281L126.284 77.356L128.893 76.0688C129.401 75.8262 129.744 75.5815 129.923 75.3349C130.102 75.0883 130.211 74.7281 130.249 74.2543L130.354 72.9682L126.665 72.6688L126.776 71.2982Z" fill="white"/>
<path d="M124.687 84.3018C124.897 83.5262 125.248 82.9002 125.741 82.424C126.233 81.9477 126.828 81.634 127.526 81.483C128.232 81.3459 129.005 81.3913 129.846 81.6192C130.687 81.8472 131.372 82.197 131.901 82.6686C132.438 83.1542 132.799 83.7268 132.984 84.3867C133.168 85.0465 133.156 85.7642 132.945 86.5398C132.738 87.3044 132.388 87.9249 131.896 88.4012C131.4 88.8884 130.8 89.2005 130.094 89.3377C129.396 89.4887 128.627 89.4502 127.786 89.2223C126.945 88.9943 126.256 88.6376 125.719 88.1521C125.19 87.6804 124.835 87.1092 124.653 86.4385C124.468 85.7787 124.479 85.0664 124.687 84.3018ZM125.752 84.5904C125.55 85.3332 125.651 85.9996 126.054 86.5896C126.468 87.1825 127.167 87.6122 128.15 87.8786C129.144 88.148 129.964 88.1298 130.61 87.824C131.255 87.5183 131.679 86.9939 131.88 86.2511C132.085 85.4974 131.985 84.8255 131.582 84.2355C131.176 83.6565 130.476 83.2323 129.482 82.9629C128.499 82.6965 127.68 82.7092 127.027 83.0011C126.381 83.3069 125.956 83.8366 125.752 84.5904Z" fill="white"/>
<path d="M122.74 90.9925L130.162 94.5981L129.561 95.835L126.476 94.3364L124.51 98.3829L127.595 99.8815L126.994 101.118L119.572 97.5128L120.173 96.2759L123.502 97.8932L125.468 93.8467L122.139 92.2294L122.74 90.9925Z" fill="white"/>
<path d="M116.86 101.632L122.685 105.773L124.416 103.337L125.316 103.977L121.047 109.982L120.148 109.343L121.889 106.894L116.063 102.753L116.86 101.632Z" fill="white"/>
<path d="M111.263 108.274C111.658 107.868 112.09 107.577 112.559 107.402C113.029 107.243 113.493 107.205 113.95 107.286C114.408 107.368 114.807 107.574 115.148 107.905C115.578 108.323 115.813 108.764 115.852 109.227C115.882 109.699 115.702 110.242 115.311 110.856C114.92 111.486 114.291 112.248 113.423 113.141L113.045 113.53L113.422 113.897C113.925 114.386 114.389 114.631 114.813 114.633C115.238 114.651 115.671 114.433 116.113 113.978C116.46 113.621 116.742 113.224 116.96 112.789C117.186 112.362 117.355 111.863 117.466 111.293L118.516 111.65C118.436 112.171 118.247 112.714 117.951 113.279C117.648 113.852 117.299 114.341 116.904 114.747C116.163 115.51 115.428 115.893 114.7 115.895C113.964 115.906 113.202 115.529 112.414 114.764L108.688 111.144L109.587 110.219L110.61 111.213C110.41 110.719 110.367 110.212 110.479 109.69C110.584 109.176 110.845 108.704 111.263 108.274ZM111.852 109.153C111.379 109.641 111.159 110.2 111.192 110.832C111.234 111.472 111.514 112.044 112.034 112.548L112.399 112.903L112.766 112.526C113.405 111.868 113.877 111.317 114.183 110.872C114.488 110.444 114.639 110.077 114.635 109.773C114.631 109.485 114.499 109.215 114.239 108.963C113.906 108.639 113.524 108.489 113.092 108.511C112.652 108.542 112.239 108.756 111.852 109.153Z" fill="white"/>
<path d="M106.32 113.192L111.174 119.864L110.062 120.673L108.035 117.886L106.785 118.795L106.63 123.17L105.408 124.058L105.541 119.364C105.236 119.446 104.911 119.451 104.566 119.38C104.221 119.31 103.786 119.164 103.262 118.944L100.211 117.636L101.405 116.767L104.082 117.906C104.597 118.133 105.006 118.234 105.31 118.209C105.614 118.184 105.958 118.032 106.342 117.753L107.386 116.994L105.208 114.001L106.32 113.192Z" fill="white"/>
<path d="M96.872 119.346L100.114 125.716L102.777 124.361L103.278 125.344L96.7111 128.686L96.2105 127.703L98.8886 126.34L95.6464 119.97L96.872 119.346Z" fill="white"/>
<path d="M91.3182 122.112L93.6269 130.033L92.3066 130.418L91.4848 127.598L89.0888 128.296C88.0782 128.591 87.2472 128.591 86.5958 128.298C85.9475 128.015 85.5062 127.472 85.2719 126.668C85.0407 125.875 85.1287 125.165 85.5358 124.54C85.9352 123.928 86.6239 123.48 87.6019 123.195L91.3182 122.112ZM83.3477 124.435L85.6564 132.356L84.3361 132.74L82.0275 124.819L83.3477 124.435ZM90.2735 123.442L88.0078 124.102C87.3993 124.279 86.9646 124.548 86.7038 124.907C86.4321 125.269 86.377 125.727 86.5385 126.281C86.6968 126.824 86.9824 127.177 87.3953 127.34C87.8081 127.502 88.3243 127.493 88.9436 127.313L91.2093 126.653L90.2735 123.442Z" fill="white"/>
<path d="M69.7884 125.774L69.1525 134L67.7814 133.894L68.047 130.458L66.5066 130.339L63.5496 133.567L62.0431 133.45L65.1903 129.965C64.9057 129.829 64.6549 129.622 64.4379 129.345C64.221 129.067 63.9846 128.674 63.7287 128.166L62.2558 125.192L63.7285 125.305L65.0257 127.909C65.2704 128.416 65.5163 128.758 65.7637 128.936C66.011 129.114 66.3716 129.222 66.8456 129.258L68.1321 129.358L68.4173 125.668L69.7884 125.774Z" fill="white"/>
<path d="M56.962 123.755C57.7392 123.959 58.3678 124.306 58.8478 124.795C59.3278 125.284 59.646 125.876 59.8023 126.573C59.9448 127.277 59.9052 128.051 59.6837 128.894C59.4621 129.737 59.1175 130.424 58.6499 130.957C58.1684 131.497 57.5985 131.862 56.94 132.052C56.2816 132.242 55.5638 132.234 54.7866 132.03C54.0204 131.829 53.3972 131.484 52.9172 130.995C52.4262 130.503 52.1095 129.905 51.967 129.2C51.8107 128.504 51.8433 127.734 52.0649 126.891C52.2864 126.048 52.638 125.357 53.1194 124.816C53.5871 124.284 54.1556 123.924 54.8249 123.737C55.4834 123.548 56.1957 123.553 56.962 123.755ZM56.6814 124.822C55.937 124.626 55.2714 124.732 54.6845 125.14C54.0947 125.558 53.6703 126.26 53.4113 127.245C53.1495 128.241 53.1739 129.061 53.4846 129.704C53.7953 130.348 54.3228 130.767 55.0672 130.963C55.8225 131.161 56.4936 131.057 57.0805 130.65C57.6565 130.239 58.0754 129.536 58.3373 128.54C58.5962 127.555 58.5773 126.736 58.2804 126.085C57.9697 125.442 57.4367 125.021 56.6814 124.822Z" fill="white"/>
<path d="M50.2254 121.825L46.6472 129.26L45.408 128.664L46.8953 125.574L42.8413 123.623L41.354 126.713L40.1149 126.116L43.6931 118.682L44.9323 119.278L43.3272 122.613L47.3812 124.564L48.9862 121.229L50.2254 121.825Z" fill="white"/>
<path d="M39.6257 116.026L35.5275 121.881L37.9756 123.595L37.3428 124.499L31.306 120.274L31.9388 119.37L34.4008 121.093L38.499 115.237L39.6257 116.026Z" fill="white"/>
<path d="M32.9184 110.432C33.3258 110.825 33.6178 111.256 33.7944 111.725C33.955 112.194 33.9955 112.658 33.9157 113.115C33.836 113.573 33.6311 113.973 33.3011 114.315C32.8847 114.747 32.4448 114.983 31.9812 115.023C31.5096 115.056 30.966 114.878 30.3506 114.489C29.7192 114.1 28.9553 113.474 28.0591 112.609L27.6681 112.232L27.3027 112.611C26.8156 113.116 26.5719 113.581 26.5716 114.005C26.5553 114.43 26.7753 114.862 27.2315 115.302C27.59 115.648 27.9874 115.928 28.4235 116.145C28.8519 116.369 29.3512 116.536 29.9215 116.646L29.5684 117.697C29.0467 117.618 28.503 117.432 27.9373 117.138C27.3635 116.836 26.8729 116.489 26.4655 116.096C25.6997 115.358 25.3141 114.624 25.3089 113.896C25.2955 113.16 25.6699 112.397 26.432 111.606L30.0382 107.867L30.967 108.763L29.977 109.789C30.4697 109.588 30.9771 109.543 31.4995 109.653C32.0136 109.756 32.4866 110.016 32.9184 110.432ZM32.0407 111.024C31.5518 110.553 30.9915 110.335 30.3598 110.37C29.7202 110.414 29.149 110.697 28.6462 111.218L28.2927 111.585L28.6715 111.95C29.3315 112.586 29.8843 113.056 30.3301 113.361C30.7599 113.665 31.1268 113.814 31.4309 113.809C31.7189 113.804 31.9887 113.671 32.2401 113.41C32.5622 113.076 32.7113 112.693 32.6875 112.261C32.6555 111.821 32.4399 111.409 32.0407 111.024Z" fill="white"/>
<path d="M27.9935 105.532L21.3387 110.41L20.5257 109.301L23.3054 107.263L22.392 106.017L18.0164 105.878L17.1231 104.659L21.8181 104.775C21.7354 104.471 21.7288 104.146 21.7982 103.8C21.8677 103.455 22.0117 103.019 22.2302 102.494L23.5269 99.4391L24.4002 100.63L23.2706 103.311C23.0453 103.827 22.9458 104.236 22.9719 104.54C22.998 104.844 23.1515 105.187 23.4326 105.57L24.1954 106.611L27.1804 104.423L27.9935 105.532Z" fill="white"/>
<path d="M21.8415 96.193L15.4958 99.4822L16.8709 102.135L15.8911 102.643L12.5002 96.1013L13.48 95.5935L14.8629 98.2613L21.2086 94.9721L21.8415 96.193Z" fill="white"/>
<path d="M19.0112 90.6078L11.0984 92.9463L10.7086 91.6276L13.5253 90.7951L12.8179 88.4019C12.5196 87.3925 12.516 86.5615 12.807 85.909C13.0872 85.2597 13.6289 84.8164 14.4321 84.579C15.2245 84.3448 15.9342 84.4301 16.5613 84.8349C17.1744 85.232 17.6253 85.919 17.914 86.8958L19.0112 90.6078ZM16.6581 82.6465L8.74534 84.9851L8.35557 83.6663L16.2683 81.3278L16.6581 82.6465ZM17.6771 89.5681L17.0082 87.3051C16.8286 86.6973 16.5588 86.2637 16.1988 86.0042C15.8356 85.7338 15.3773 85.6805 14.8237 85.8441C14.281 86.0045 13.9291 86.2914 13.7681 86.7049C13.607 87.1183 13.6179 87.6344 13.8008 88.253L14.4696 90.5161L17.6771 89.5681Z" fill="white"/>
<path d="M15.229 69.1922L7 68.588L7.1007 67.2166L10.5379 67.469L10.651 65.9282L7.41151 62.9838L7.52216 61.4769L11.0202 64.6105C11.1546 64.3254 11.3603 64.0738 11.6374 63.8558C11.9144 63.6378 12.3064 63.3999 12.8133 63.1421L15.7822 61.6578L15.674 63.1308L13.0756 64.438C12.5695 64.6846 12.2279 64.9319 12.0508 65.1799C11.8737 65.4279 11.7678 65.7889 11.733 66.263L11.6385 67.5498L15.3297 67.8208L15.229 69.1922Z" fill="white"/>
<path d="M17.1608 56.3747C16.9595 57.1526 16.6152 57.7825 16.1281 58.2644C15.6409 58.7462 15.0494 59.0666 14.3536 59.2256C13.6496 59.3707 12.8758 59.3341 12.032 59.1158C11.1883 58.8974 10.4993 58.5555 9.96514 58.0899C9.42281 57.6105 9.05554 57.0419 8.86332 56.3843C8.67111 55.7266 8.67567 55.0088 8.87702 54.2309C9.07553 53.4639 9.41836 52.8395 9.9055 52.3576C10.3955 51.8648 10.9925 51.5458 11.6964 51.4007C12.3923 51.2417 13.1621 51.2714 14.0058 51.4898C14.8495 51.7081 15.5425 52.057 16.0849 52.5364C16.6191 53.002 16.9809 53.5691 17.1702 54.2377C17.3625 54.8954 17.3593 55.6077 17.1608 56.3747ZM16.0925 56.0982C16.2853 55.3531 16.1769 54.6879 15.7672 54.1026C15.3465 53.5144 14.6431 53.0927 13.657 52.8375C12.6599 52.5794 11.8402 52.607 11.198 52.9201C10.5557 53.2332 10.1382 53.7623 9.94536 54.5074C9.74969 55.2634 9.8567 55.9341 10.2664 56.5194C10.6789 57.0938 11.3837 57.51 12.3808 57.7681C13.367 58.0233 14.1853 58.0012 14.8356 57.7019C15.4778 57.3888 15.8968 56.8542 16.0925 56.0982Z" fill="white"/>
<path d="M18.9954 49.7183L11.5341 46.1955L12.1213 44.9521L15.2224 46.4162L17.1434 42.348L14.0422 40.8839L14.6293 39.6404L22.0906 43.1631L21.5034 44.4066L18.1566 42.8264L16.2357 46.8946L19.5825 48.4748L18.9954 49.7183Z" fill="white"/>
<path d="M24.777 38.9523L18.9061 34.8757L17.2018 37.3299L16.2954 36.7005L20.4981 30.6486L21.4045 31.278L19.6905 33.7462L25.5614 37.8228L24.777 38.9523Z" fill="white"/>
<path d="M30.3872 32.142C29.9958 32.5508 29.5659 32.8443 29.0975 33.0226C28.6287 33.1849 28.1654 33.227 27.7074 33.149C27.2494 33.0709 26.8487 32.8675 26.5053 32.5388C26.072 32.124 25.8342 31.6849 25.7921 31.2215C25.7578 30.75 25.9341 30.2058 26.3209 29.589C26.7073 28.9562 27.3311 28.1902 28.192 27.2909L28.5677 26.8984L28.1875 26.5345C27.6806 26.0492 27.2151 25.8072 26.7908 25.8085C26.3662 25.7937 25.9348 26.0153 25.4965 26.4731C25.1521 26.8328 24.8726 27.2312 24.6579 27.6681C24.4351 28.0972 24.2699 28.5971 24.1623 29.1678L23.11 28.8185C23.1867 28.2965 23.3709 27.7522 23.6628 27.1855C23.9624 26.6106 24.308 26.1188 24.6993 25.71C25.435 24.9415 26.1671 24.5533 26.8954 24.5455C27.6315 24.5294 28.3961 24.901 29.1891 25.6601L32.9419 29.2526L32.0496 30.1846L31.0194 29.1984C31.2223 29.6903 31.2694 30.1976 31.1607 30.7203C31.0598 31.2348 30.802 31.7087 30.3872 32.142ZM29.7917 31.2664C30.2613 30.7759 30.4772 30.2148 30.4394 29.5833C30.3935 28.9439 30.1089 28.3738 29.5856 27.8728L29.2177 27.5207L28.8538 27.9008C28.2198 28.563 27.7515 29.1176 27.4491 29.5644C27.1463 29.9953 26.9982 30.3627 27.0048 30.6668C27.0111 30.9548 27.1451 31.2241 27.4067 31.4745C27.7419 31.7954 28.1254 31.9431 28.5571 31.9177C28.9966 31.8841 29.4082 31.667 29.7917 31.2664Z" fill="white"/>
<path d="M35.2684 27.1809L30.3661 20.5443L31.4723 19.7273L33.5199 22.4994L34.7626 21.5815L34.8863 17.2057L36.1017 16.308L36.0029 21.0032C36.3068 20.9194 36.6317 20.9116 36.9776 20.9797C37.3234 21.0479 37.7593 21.1903 38.2852 21.4069L41.3454 22.6924L40.1573 23.5699L37.4728 22.4502C36.956 22.2268 36.5459 22.1288 36.2423 22.156C35.9388 22.1832 35.5958 22.338 35.2135 22.6204L34.1756 23.387L36.3746 26.3639L35.2684 27.1809Z" fill="white"/>
<path d="M44.4617 21.0459L41.1489 14.7127L38.5012 16.0975L37.9897 15.1197L44.5188 11.7048L45.0302 12.6826L42.3675 14.0753L45.6802 20.4086L44.4617 21.0459Z" fill="white"/>
<path d="M50.1761 18.1123L47.8076 10.2089L49.1249 9.81411L49.968 12.6275L52.3587 11.9111C53.367 11.609 54.198 11.6022 54.8516 11.8907C55.502 12.1685 55.9474 12.7085 56.1878 13.5107C56.425 14.3022 56.3424 15.0122 55.94 15.6408C55.5452 16.2554 54.8599 16.7088 53.8841 17.0012L50.1761 18.1123ZM58.1288 15.7293L55.7602 7.8258L57.0775 7.43107L59.4461 15.3346L58.1288 15.7293ZM51.2108 16.7744L53.4713 16.097C54.0785 15.9151 54.5111 15.6436 54.7693 15.2827C55.0382 14.9186 55.0899 14.46 54.9242 13.9071C54.7617 13.365 54.4734 13.0143 54.0594 12.8548C53.6453 12.6953 53.1292 12.7081 52.5112 12.8933L50.2507 13.5707L51.2108 16.7744Z" fill="white"/>
<path d="M71.5289 14.2309L72.1014 6L73.4733 6.09541L73.2342 9.5334L74.7754 9.64059L77.7075 6.38989L79.2149 6.49473L76.0946 10.0046C76.3803 10.1379 76.6327 10.3427 76.8517 10.6189C77.0708 10.895 77.3102 11.2861 77.57 11.792L79.0658 14.755L77.5923 14.6526L76.275 12.0593C76.0265 11.5542 75.7779 11.2136 75.5292 11.0374C75.2805 10.8613 74.919 10.7567 74.4448 10.7238L73.1576 10.6342L72.9008 14.3263L71.5289 14.2309Z" fill="white"/>
<path d="M84.3918 16.1067C83.6131 15.9084 82.9818 15.5665 82.4981 15.0812C82.0144 14.596 81.6917 14.0057 81.5302 13.3105C81.3823 12.6071 81.416 11.8332 81.6311 10.9887C81.8463 10.1442 82.1856 9.45393 82.6492 8.91798C83.1266 8.37386 83.6937 8.00445 84.3507 7.80974C85.0076 7.61504 85.7255 7.61688 86.5042 7.81526C87.272 8.01084 87.8977 8.35128 88.3815 8.83657C88.8761 9.32465 89.1974 9.92038 89.3452 10.6238C89.5068 11.319 89.4801 12.0888 89.2649 12.9333C89.0498 13.7778 88.7035 14.4722 88.2262 15.0163C87.7626 15.5522 87.1968 15.9162 86.5289 16.1081C85.8719 16.3028 85.1596 16.3023 84.3918 16.1067ZM84.6642 15.0374C85.4101 15.2274 86.0749 15.1165 86.6587 14.7046C87.2453 14.2817 87.6644 13.5768 87.9158 12.5897C88.1701 11.5916 88.1395 10.7721 87.8239 10.1311C87.5083 9.49009 86.9776 9.0746 86.2318 8.8846C85.475 8.69181 84.8047 8.80135 84.2209 9.21324C83.648 9.62792 83.2345 10.3343 82.9802 11.3323C82.7287 12.3194 82.7539 13.1375 83.0557 13.7867C83.3713 14.4277 83.9074 14.8446 84.6642 15.0374Z" fill="white"/>
<path d="M91.0708 17.9112L94.5659 10.4373L95.8116 11.0198L94.3589 14.1262L98.4344 16.0319L99.8871 12.9254L101.133 13.5079L97.6377 20.9819L96.392 20.3994L97.9598 17.0469L93.8843 15.1412L92.3165 18.4937L91.0708 17.9112Z" fill="white"/>
<path d="M101.915 23.682L105.97 17.7965L103.51 16.1013L104.136 15.1926L110.203 19.3729L109.577 20.2816L107.103 18.5767L103.047 24.4622L101.915 23.682Z" fill="white"/>
<path d="M108.505 29.0459C108.094 28.6575 107.797 28.2298 107.615 27.7627C107.449 27.2951 107.404 26.8321 107.479 26.3736C107.553 25.915 107.754 25.5129 108.08 25.1671C108.492 24.7308 108.929 24.4899 109.392 24.4444C109.864 24.4067 110.409 24.579 111.029 24.9613C111.664 25.3431 112.435 25.9612 113.34 26.8156L113.736 27.1884L114.097 26.8056C114.578 26.2952 114.817 25.8279 114.813 25.4037C114.824 24.9791 114.6 24.5492 114.139 24.1143C113.776 23.7725 113.376 23.496 112.938 23.2845C112.507 23.0649 112.006 22.9033 111.434 22.7998L111.776 21.7451C112.298 21.8179 112.844 21.9982 113.413 22.2859C113.99 22.5814 114.484 22.9233 114.896 23.3117C115.67 24.0417 116.063 24.7709 116.076 25.4991C116.098 26.235 115.732 27.0023 114.978 27.8008L111.413 31.5794L110.475 30.6939L111.453 29.6567C110.963 29.8631 110.456 29.9139 109.933 29.809C109.417 29.7119 108.942 29.4575 108.505 29.0459ZM109.376 28.4441C109.87 28.9101 110.433 29.1219 111.064 29.0795C111.703 29.0289 112.271 28.7402 112.769 28.2133L113.118 27.8429L112.735 27.4817C112.068 26.8526 111.511 26.3884 111.061 26.0892C110.628 25.7896 110.26 25.6442 109.956 25.653C109.668 25.6614 109.4 25.7973 109.151 26.0607C108.833 26.3982 108.688 26.7828 108.716 27.2143C108.753 27.6536 108.973 28.0635 109.376 28.4441Z" fill="white"/>
<path d="M113.532 33.8995L120.132 28.9491L120.958 30.0492L118.2 32.117L119.127 33.3529L123.504 33.4446L124.411 34.6534L119.715 34.5888C119.801 34.8921 119.811 35.217 119.745 35.5633C119.68 35.9096 119.54 36.3465 119.328 36.8739L118.065 39.9433L117.178 38.7617L118.278 36.0692C118.498 35.5508 118.593 35.14 118.564 34.8367C118.534 34.5334 118.377 34.1916 118.092 33.8113L117.318 32.7791L114.357 34.9996L113.532 33.8995Z" fill="white"/>
<path d="M119.919 43.3623L126.24 40.0262L124.845 37.3838L125.821 36.8687L129.26 43.3848L128.284 43.8999L126.882 41.2424L120.561 44.5784L119.919 43.3623Z" fill="white"/>
<path d="M122.747 48.7684L130.632 46.3403L131.037 47.6545L128.23 48.5188L128.965 50.9039C129.274 51.9099 129.287 52.7407 129.004 53.3965C128.731 54.0489 128.194 54.4984 127.394 54.7448C126.604 54.988 125.893 54.9107 125.262 54.5131C124.644 54.123 124.186 53.4412 123.886 52.4677L122.747 48.7684ZM125.19 56.7024L133.076 54.2743L133.48 55.5885L125.595 58.0167L125.19 56.7024ZM124.092 49.7928L124.787 52.0481C124.973 52.6539 125.248 53.0844 125.611 53.3398C125.977 53.606 126.436 53.6541 126.988 53.4843C127.529 53.3177 127.877 53.0268 128.034 52.6116C128.19 52.1963 128.173 51.6804 127.983 51.0639L127.289 48.8086L124.092 49.7928Z" fill="white"/>
</svg>
