<svg width="43" height="27" viewBox="0 0 43 27" fill="none" xmlns="http://www.w3.org/2000/svg">
<path d="M41.8216 1.23028C41.8778 1.29041 41.9225 1.35901 41.9529 1.43517C41.9551 1.44027 41.9566 1.44537 41.9582 1.45047C41.9594 1.45428 41.9605 1.45809 41.962 1.4619L41.8216 1.23028ZM41.8216 1.23028C41.8197 1.22828 41.8187 1.22605 41.8176 1.22382C41.8165 1.2216 41.8155 1.21937 41.8136 1.21736L41.8216 1.23028ZM0.815716 1.34046C0.855196 1.24235 0.911376 1.15446 0.978804 1.07825C0.987698 1.06528 0.999816 1.05007 1.01602 1.03489L0.815716 1.34046ZM0.815716 1.34046C0.809041 1.35661 0.804879 1.37033 0.803143 1.37605L0.80193 1.38009L0.801685 1.3809C0.772489 1.46441 0.75 1.56111 0.75 1.66813V25.3323C0.75 25.4414 0.773475 25.5397 0.803295 25.6241L0.803258 25.6241L0.803631 25.6251C0.803712 25.6254 0.803803 25.6257 0.803904 25.626L0.804132 25.6268C0.80537 25.6309 0.80875 25.6422 0.813378 25.6546L0.813299 25.6546L0.815725 25.6606C0.856059 25.7606 0.913541 25.8496 0.982405 25.9265C0.98823 25.9347 0.99562 25.9442 1.00479 25.9542M0.815716 1.34046L41.7139 26.1515L41.7105 26.1533L41.7049 26.1564C41.6971 26.1606 41.6803 26.1697 41.6596 26.178C41.544 26.2246 41.4177 26.25 41.2861 26.25H1.71342C1.58173 26.25 1.45646 26.2242 1.34277 26.1792M0.959736 1.11073C0.959842 1.11052 0.959958 1.1103 0.960082 1.11006L0.959736 1.11073ZM0.959736 1.11073L0.958884 1.11241C0.959126 1.11193 0.959426 1.11133 0.959736 1.11073ZM1.00479 25.9542C1.0045 25.9538 1.0042 25.9535 1.00391 25.9532L1.18834 25.7844L1.00568 25.9551C1.00538 25.9548 1.00509 25.9545 1.00479 25.9542ZM1.00479 25.9542C1.01581 25.9661 1.02607 25.975 1.03353 25.981C1.03423 25.9816 1.03492 25.9821 1.0356 25.9827C1.06753 26.0124 1.09948 26.0368 1.12578 26.0562L1.12576 26.0562L1.12705 26.0571L1.13282 26.0618L1.13322 26.0621C1.13945 26.0672 1.15423 26.0793 1.17265 26.0913M1.17265 26.0913C1.17244 26.0911 1.17224 26.091 1.17203 26.0909L1.30867 25.8815L1.17265 26.0913ZM1.17265 26.0913C1.21767 26.1206 1.26263 26.1425 1.30124 26.1596M1.30124 26.1596C1.30436 26.1613 1.30899 26.1638 1.3142 26.1664C1.32118 26.17 1.3309 26.1746 1.34277 26.1792M1.30124 26.1596C1.29991 26.1588 1.29885 26.1582 1.29814 26.1578L1.29799 26.1577C1.29431 26.1556 1.29587 26.1565 1.29728 26.1573C1.29899 26.1582 1.30298 26.1603 1.3086 26.1628M1.30124 26.1596C1.30372 26.1606 1.30617 26.1617 1.3086 26.1628M1.34277 26.1792C1.3421 26.1789 1.34143 26.1786 1.34075 26.1784L1.43328 25.9461L1.34771 26.181C1.34603 26.1804 1.34438 26.1798 1.34277 26.1792ZM1.3086 26.1628L1.30858 26.1628L1.31249 26.1644C1.31112 26.1639 1.30982 26.1633 1.3086 26.1628ZM38.7665 24.4137L27.4389 14.7471L22.1439 19.2764C22.1438 19.2764 22.1438 19.2764 22.1438 19.2765L22.1436 19.2766L21.9811 19.0867C21.8451 19.2034 21.6729 19.2617 21.5002 19.2617L38.7665 24.4137ZM38.7665 24.4137H4.21492L15.4934 14.689L38.7665 24.4137ZM26.7159 12.8756C26.6927 12.8994 26.6765 12.9238 26.6666 12.9406L21.5002 17.3599L4.22944 2.58581H38.771L26.8928 12.7469C26.8564 12.7676 26.7757 12.8139 26.7159 12.8756ZM26.7159 12.8756C26.7161 12.8754 26.7162 12.8752 26.7164 12.875L26.8951 13.0499L26.7154 12.8761C26.7156 12.8759 26.7157 12.8758 26.7159 12.8756ZM42.1846 1.34126C42.1454 1.24344 42.0898 1.1559 42.0224 1.07953C42.0154 1.06911 42.0063 1.05734 41.9949 1.0453L41.9898 1.0399L41.9844 1.03481C41.9783 1.02909 41.9724 1.02415 41.967 1.01993C41.8898 0.946494 41.8013 0.887721 41.7053 0.84336L41.7005 0.840702C41.6949 0.837734 41.6872 0.833816 41.6778 0.829756L41.6778 0.829745L41.6756 0.828814C41.5724 0.785407 41.4637 0.762249 41.3543 0.755139L41.3529 0.754968L41.3524 0.754908C41.3487 0.754462 41.3402 0.75343 41.329 0.752784C41.3221 0.751883 41.3061 0.75 41.2871 0.75H1.71389C1.6934 0.75 1.67634 0.752189 1.67086 0.752893L1.67034 0.75296L1.6697 0.753041C1.66551 0.753356 1.66184 0.753703 1.65892 0.754002L1.64962 0.755037C1.64939 0.755064 1.64918 0.755088 1.64899 0.75511C1.64899 0.75511 1.64899 0.75511 1.64899 0.755111C1.53894 0.762163 1.42953 0.785558 1.32624 0.828741C1.31622 0.832809 1.3081 0.836791 1.30236 0.839769L1.29945 0.841336C1.20193 0.885652 1.11281 0.944935 1.03549 1.01838C1.02929 1.02314 1.02273 1.02861 1.01602 1.03489L42.1846 1.34126ZM41.7141 26.1513C41.7435 26.1376 41.7849 26.1177 41.8258 26.0916L41.8279 26.0902C41.8464 26.0781 41.8614 26.0659 41.8691 26.0597L41.8785 26.052C41.8799 26.0508 41.8807 26.0503 41.8809 26.0501C41.8809 26.0501 41.8809 26.0501 41.8809 26.0501L41.8821 26.0492L41.8823 26.049C41.9035 26.0331 41.9354 26.009 41.9669 25.9791L41.9671 25.9789C41.9711 25.9757 41.9769 25.9708 41.9834 25.9647L41.9889 25.9596L41.994 25.9542C42.0056 25.942 42.0145 25.9302 42.0213 25.9203C42.0874 25.8454 42.1423 25.7596 42.1814 25.6642C42.1878 25.65 42.1921 25.6379 42.1948 25.6298L42.1983 25.6188L42.1987 25.6176L41.7141 26.1513ZM42.004 25.9393C42.0042 25.9391 42.0044 25.9389 42.0046 25.9387L42.0024 25.941L42.004 25.9393ZM1.07697 0.992291L1.07659 0.992488L1.07697 0.992291ZM41.711 0.846509L41.7088 0.845339C41.7097 0.845806 41.7105 0.846242 41.711 0.846544C41.7119 0.847029 41.7121 0.847164 41.711 0.846509ZM41.9377 0.999899C41.9377 0.999899 41.9387 1.00051 41.9399 1.00125L41.9378 0.999986L41.9377 0.999899ZM42.0429 1.11555L42.0414 1.11244L42.0429 1.11555ZM2.67731 23.2629V3.72585L14.0513 13.4555L2.67731 23.2629ZM40.3232 23.2772L28.8818 13.5129L40.3232 3.72584V23.2772Z" fill="white" stroke="white" stroke-width="0.5"/>
</svg>
