<svg width="101" height="101" viewBox="0 0 101 101" fill="none" xmlns="http://www.w3.org/2000/svg">
<rect y="10" width="56" height="56" rx="10" fill="#B81034"/>
<path d="M93.6893 76.715C93.7366 76.569 93.7688 76.4151 93.7688 76.253V22.784C93.7688 22.621 93.7366 22.466 93.6883 22.3191C93.6812 22.2989 93.6772 22.2788 93.6691 22.2587C93.6047 22.0866 93.5101 21.9316 93.3914 21.7957C93.3833 21.7867 93.3823 21.7756 93.3742 21.7665C93.3692 21.7615 93.3632 21.7595 93.3581 21.7545C93.2313 21.6196 93.0814 21.5109 92.9133 21.4294C92.9002 21.4233 92.8901 21.4153 92.8771 21.4092C92.718 21.3378 92.5449 21.2975 92.3628 21.2855C92.3447 21.2844 92.3276 21.2804 92.3094 21.2804C92.2923 21.2794 92.2772 21.2754 92.2601 21.2754H8.51951C8.5024 21.2754 8.4863 21.2794 8.46919 21.2804C8.45309 21.2814 8.43698 21.2844 8.42088 21.2855C8.2367 21.2975 8.06058 21.3388 7.89955 21.4113C7.88948 21.4153 7.88143 21.4223 7.87137 21.4264C7.70027 21.5079 7.5483 21.6186 7.42048 21.7555C7.41545 21.7605 7.40941 21.7615 7.40438 21.7665C7.39633 21.7746 7.39532 21.7857 7.38727 21.7947C7.26851 21.9306 7.1729 22.0866 7.10849 22.2587C7.10044 22.2788 7.09641 22.2989 7.08936 22.3201C7.04106 22.467 7.00885 22.622 7.00885 22.785V76.255C7.00885 76.4201 7.04206 76.5771 7.09138 76.7261C7.09842 76.7462 7.10245 76.7653 7.10949 76.7854C7.17491 76.9585 7.27153 77.1145 7.3913 77.2504C7.39834 77.2585 7.40035 77.2685 7.4074 77.2766C7.41344 77.2836 7.42149 77.2876 7.42853 77.2947C7.47785 77.346 7.5322 77.3913 7.58856 77.4356C7.61372 77.4547 7.63586 77.4779 7.66203 77.496C7.72845 77.5423 7.79991 77.5795 7.87338 77.6137C7.8915 77.6218 7.9076 77.6349 7.92571 77.6419C8.10788 77.7194 8.30816 77.7637 8.51851 77.7637H92.2581C92.4685 77.7637 92.6687 77.7204 92.8509 77.6419C92.8791 77.6298 92.9052 77.6117 92.9324 77.5976C92.9948 77.5664 93.0572 77.5342 93.1146 77.495C93.1448 77.4738 93.172 77.4467 93.2011 77.4235C93.2525 77.3823 93.3028 77.341 93.3471 77.2937C93.3551 77.2856 93.3642 77.2796 93.3722 77.2715C93.3803 77.2625 93.3823 77.2504 93.3904 77.2414C93.5081 77.1065 93.6027 76.9515 93.6671 76.7804C93.6772 76.7583 93.6822 76.7371 93.6893 76.715ZM10.0292 26.2079L35.4387 49.4174L10.0292 72.812V26.2079ZM62.1083 48.2801C62.0036 48.3486 61.8929 48.4059 61.8053 48.5025C61.7721 48.5388 61.761 48.5861 61.7319 48.6243L50.3893 58.9846L12.4104 24.2937H88.3682L62.1083 48.2801ZM37.677 51.4615L49.3708 62.1428C49.6596 62.4065 50.024 62.5383 50.3893 62.5383C50.7547 62.5383 51.119 62.4065 51.4068 62.1428L62.9557 51.5943L88.3612 74.7444H12.3883L37.677 51.4615ZM65.195 49.5492L90.7495 26.2079V72.8362L65.195 49.5492Z" fill="white"/>
</svg>
