<svg width="35" height="35" viewBox="0 0 35 35" fill="none" xmlns="http://www.w3.org/2000/svg">
<circle cx="17.5" cy="17.5" r="17.5" transform="matrix(-1 0 0 1 35 0)" fill="#B81034"/>
<path d="M11 18.5C10.7239 18.5 10.5 18.2761 10.5 18C10.5 17.7239 10.7239 17.5 11 17.5V18.5ZM23.3536 17.6464C23.5488 17.8417 23.5488 18.1583 23.3536 18.3536L20.1716 21.5355C19.9763 21.7308 19.6597 21.7308 19.4645 21.5355C19.2692 21.3403 19.2692 21.0237 19.4645 20.8284L22.2929 18L19.4645 15.1716C19.2692 14.9763 19.2692 14.6597 19.4645 14.4645C19.6597 14.2692 19.9763 14.2692 20.1716 14.4645L23.3536 17.6464ZM11 17.5H23V18.5H11V17.5Z" fill="white"/>
</svg>
