<svg width="19" height="9" viewBox="0 0 19 9" fill="none" xmlns="http://www.w3.org/2000/svg">
<path d="M1 4.5C0.723858 4.5 0.5 4.72386 0.5 5C0.5 5.27614 0.723858 5.5 1 5.5V4.5ZM18.3536 5.35355C18.5488 5.15829 18.5488 4.84171 18.3536 4.64645L15.1716 1.46447C14.9763 1.2692 14.6597 1.2692 14.4645 1.46447C14.2692 1.65973 14.2692 1.97631 14.4645 2.17157L17.2929 5L14.4645 7.82843C14.2692 8.02369 14.2692 8.34027 14.4645 8.53553C14.6597 8.7308 14.9763 8.7308 15.1716 8.53553L18.3536 5.35355ZM1 5.5H18V4.5H1V5.5Z" fill="#B81034"/>
</svg>
