<svg width="225" height="156" viewBox="0 0 225 156" fill="none" xmlns="http://www.w3.org/2000/svg">
<path d="M21.6779 156L58.9014 137.174L59.0522 87.9961L21.6779 156ZM21.6055 106.627L21.6779 156L59.0522 87.9961L21.6055 106.627Z" fill="#B81034"/>
<path d="M0 18.1777L0.510496 144.473L21.6763 156L0 18.1777Z" fill="white"/>
<path d="M21.5732 85.6738L59.1147 67.127L59.219 33.1104L21.5732 85.6738Z" fill="#B81034"/>
<path d="M0 18.1777L21.6763 156L21.6039 106.627L0 18.1777ZM0 18.1777L21.6039 106.627L21.5732 85.6741L0 18.1777Z" fill="white"/>
<path d="M21.5735 85.6738L63.5373 107.998L59.1149 67.127L21.5735 85.6738ZM21.5234 51.5189L21.5735 85.6738L59.2193 33.1104L21.5234 51.5189Z" fill="#B81034"/>
<path d="M21.604 106.627L63.4609 129.052L21.5732 85.6738L21.604 106.627Z" fill="white"/>
<path d="M63.5357 107.999L101.094 89.173L59.1133 67.1279L63.5357 107.999ZM63.4595 129.053L100.923 110.142L101.094 89.173L63.4595 129.053Z" fill="#B81034"/>
<path d="M21.5732 85.6741L21.5231 51.5191L0 18.1777L21.5732 85.6741ZM63.4608 129.052L63.537 107.998L21.5732 85.6741L63.4608 129.052Z" fill="white"/>
<path d="M63.537 107.998L63.4608 129.052L101.095 89.1721L63.537 107.998ZM0 18.1775L67.8059 53.5659L37.7859 0L0 18.1775Z" fill="#B81034"/>
<path d="M21.5231 51.5191L67.7145 75.8098L0 18.1777L21.5231 51.5191Z" fill="white"/>
<path d="M67.8062 53.5659L105.62 34.9433L37.7861 0L67.8062 53.5659ZM67.7148 75.8096L105.429 57.0958L105.62 34.9433L67.7148 75.8096Z" fill="#B81034"/>
<path d="M67.7145 75.8098L67.8059 53.5661L0 18.1777L67.7145 75.8098Z" fill="white"/>
<path d="M67.8062 53.5659L67.7148 75.8097L105.62 34.9434L67.8062 53.5659Z" fill="#B81034"/>
<path d="M224.976 98.5794L187.938 80.1162L142.942 104.135L224.976 98.5794Z" fill="#B81034"/>
<path d="M224.888 119.941L224.974 98.5791L179.998 122.899L224.888 119.941Z" fill="white"/>
<path d="M180 122.899L224.976 98.5791L142.942 104.134L180 122.899Z" fill="#B81034"/>
<path d="M158.677 156L224.89 119.94L180 122.899L158.677 156Z" fill="white"/>
<path d="M158.675 156L158.157 29.6621L121.707 137.006L158.675 156Z" fill="#B81034"/>
<path d="M180 122.9L179.846 18.3438L158.677 156.001L180 122.9Z" fill="white"/>
<path d="M158.157 29.6621L120.62 11.1762L121.707 137.006L158.157 29.6621ZM179.845 18.3429L142.316 0L120.62 11.1762L179.845 18.3429Z" fill="#B81034"/>
<path d="M179.845 18.3438L158.157 29.6629L158.676 156.001L179.845 18.3438Z" fill="white"/>
<path d="M158.157 29.6616L179.845 18.3425L120.62 11.1758L158.157 29.6616Z" fill="#B81034"/>
</svg>
