<svg width="189" height="157" viewBox="0 0 189 157" fill="none" xmlns="http://www.w3.org/2000/svg">
<path d="M21.4238 156L58.5201 137.091L59.2557 11.126L21.4238 156Z" fill="#B81034"/>
<path d="M0 18.2598L0.163876 144.422L21.4238 156L0 18.2598Z" fill="white"/>
<path d="M21.589 29.5276L21.4238 156L59.2557 11.126L21.589 29.5276Z" fill="#B81034"/>
<path d="M21.4238 156L21.589 29.5272L0 18.2598L21.4238 156Z" fill="white"/>
<path d="M21.589 29.5273L59.2558 11.1257L37.6578 0L21.589 29.5273ZM0 18.2599L21.589 29.5273L37.6578 0L0 18.2599Z" fill="#B81034"/>
<path d="M177.556 124.494L180.651 119.26L183.231 113.841L177.556 124.494ZM177.556 124.494L183.231 113.841L186.773 102.562L177.556 124.494ZM183.231 113.841L185.278 108.265L186.773 102.562L183.231 113.841ZM169.89 134.283L173.963 129.511L177.556 124.494L169.89 134.283Z" fill="white"/>
<path d="M165.569 113.778L130.151 96.0506L128.908 98.3459L165.569 113.778ZM166.567 111.439L131.141 93.7245L130.151 96.0506L166.567 111.439ZM164.319 116.089L128.908 98.3459L127.425 100.591L164.319 116.089ZM167.299 109.089L131.865 91.387L131.141 93.7245L167.299 109.089ZM162.83 118.349L127.425 100.591L125.717 102.767L162.83 118.349ZM167.751 106.748L132.308 89.0574L131.865 91.387L167.751 106.748ZM161.118 120.542L125.717 102.767L123.798 104.853L161.118 120.542ZM167.909 104.435L132.455 86.7549L132.308 89.0574L167.909 104.435Z" fill="#B81034"/>
<path d="M177.555 124.494L186.772 102.561L187.864 86.4434L177.555 124.494ZM160.37 142.968L169.889 134.283L177.555 124.494L160.37 142.968Z" fill="white"/>
<path d="M167.909 104.353L132.455 86.6729L132.455 86.7551L167.909 104.353ZM159.194 122.646L123.798 104.854L121.681 106.832L159.194 122.646Z" fill="#B81034"/>
<path d="M186.772 102.562L187.696 96.7611L188.027 90.8916L186.772 102.562Z" fill="white"/>
<path d="M167.813 102.516L132.35 84.8428L132.454 86.6727L167.813 102.516ZM157.073 124.641L121.68 106.832L119.378 108.682L157.073 124.641Z" fill="#B81034"/>
<path d="M160.37 142.968L165.353 138.779L169.889 134.283L160.37 142.968Z" fill="white"/>
<path d="M167.51 100.926L132.039 83.2578L132.35 84.8424L167.51 100.926Z" fill="#B81034"/>
<path d="M186.772 102.561L188.027 90.891L187.864 86.4434L186.772 102.561Z" fill="white"/>
<path d="M154.769 126.509L119.377 108.682L116.904 110.385L154.769 126.509ZM166.991 99.5813L131.513 81.916L132.038 83.2581L166.991 99.5813Z" fill="#B81034"/>
<path d="M188.029 90.891L188.029 90.8086L187.866 86.4434L188.029 90.891Z" fill="white"/>
<path d="M181.167 72.5602L145.607 55.0663L143.009 53.8223L181.167 72.5602ZM166.25 98.4793L130.764 80.815L131.514 81.9173L166.25 98.4793ZM152.296 128.232L116.905 110.386L114.275 111.922L152.296 128.232Z" fill="#B81034"/>
<path d="M161.117 120.542L177.555 124.494L187.865 86.4434L161.117 120.542Z" fill="white"/>
<path d="M165.273 97.614L129.781 79.9488L130.763 80.814L165.273 97.614ZM165.568 113.779L166.566 111.439L130.15 96.0508L165.568 113.779ZM164.317 116.089L165.568 113.779L128.906 98.3461L164.317 116.089ZM166.566 111.439L167.298 109.089L131.14 93.7247L166.566 111.439ZM162.829 118.35L164.317 116.089L127.424 100.591L162.829 118.35ZM149.666 129.784L114.275 111.921L111.509 113.275L149.666 129.784ZM167.298 109.089L167.75 106.748L131.864 91.3872L167.298 109.089ZM161.116 120.542L162.829 118.35L125.716 102.767L161.116 120.542ZM178.581 71.3217L143.008 53.8212L139.971 53.0703L178.581 71.3217ZM164.055 96.9862L128.556 79.318L129.781 79.9488L164.055 96.9862ZM167.75 106.748L167.907 104.435L132.306 89.0576L167.75 106.748ZM159.193 122.646L161.116 120.542L123.796 104.854L159.193 122.646Z" fill="#B81034"/>
<path d="M187.865 86.444L187.323 82.6177L186.392 79.3232L187.865 86.444Z" fill="white"/>
<path d="M167.908 104.435L167.908 104.353L132.454 86.7551L167.908 104.435ZM146.902 131.157L111.509 113.275L108.897 114.307L146.902 131.157ZM167.908 104.353L167.812 102.516L132.454 86.6729L167.908 104.353ZM157.073 124.641L159.193 122.646L121.679 106.832L157.073 124.641Z" fill="#B81034"/>
<path d="M161.117 120.543L159.193 122.647L177.555 124.494L161.117 120.543Z" fill="white"/>
<path d="M167.813 102.516L167.511 100.926L132.351 84.8428L167.813 102.516Z" fill="#B81034"/>
<path d="M143.525 153.079L154.958 146.82L160.371 142.969L143.525 153.079ZM159.194 122.646L157.074 124.642L177.556 124.494L159.194 122.646Z" fill="white"/>
<path d="M154.77 126.51L157.073 124.642L119.378 108.683L154.77 126.51Z" fill="#B81034"/>
<path d="M187.865 86.4433L186.392 79.3225L183.324 74.3008L187.865 86.4433Z" fill="white"/>
<path d="M175.556 70.5813L139.971 53.0702L136.485 52.8057L175.556 70.5813ZM144.293 132.205L108.897 114.307L106.453 115.021L144.293 132.205Z" fill="#B81034"/>
<path d="M157.073 124.641L154.77 126.51L177.555 124.493L157.073 124.641Z" fill="white"/>
<path d="M167.51 100.926L166.992 99.581L132.039 83.2578L167.51 100.926Z" fill="#B81034"/>
<path d="M165.57 113.779L164.319 116.089L187.866 86.4434L165.57 113.779ZM166.568 111.439L165.57 113.779L187.866 86.4434L166.568 111.439ZM164.319 116.089L162.831 118.35L187.866 86.4434L164.319 116.089ZM167.3 109.089L166.568 111.439L187.866 86.4434L167.3 109.089Z" fill="white"/>
<path d="M152.295 128.231L154.769 126.51L116.904 110.386L152.295 128.231Z" fill="#B81034"/>
<path d="M124.897 156.869L160.371 142.968L177.556 124.494L124.897 156.869ZM162.831 118.35L161.118 120.542L187.866 86.4434L162.831 118.35ZM167.752 106.748L167.3 109.089L187.866 86.4434L167.752 106.748ZM154.771 126.51L152.297 128.231L177.556 124.494L154.771 126.51Z" fill="white"/>
<path d="M166.993 99.5813L166.251 98.478L131.515 81.916L166.993 99.5813Z" fill="#B81034"/>
<path d="M167.909 104.436L167.751 106.748L187.865 86.4434L167.909 104.436ZM143.525 153.079L149.13 150.302L154.958 146.82L143.525 153.079ZM167.909 104.353L167.909 104.436L187.865 86.4434L167.909 104.353Z" fill="white"/>
<path d="M141.854 132.933L106.454 115.021L104.19 115.42L141.854 132.933Z" fill="#B81034"/>
<path d="M152.297 128.231L149.667 129.784L177.555 124.493L152.297 128.231Z" fill="white"/>
<path d="M178.582 71.3228L181.167 72.5602L143.009 53.8223L178.582 71.3228Z" fill="#B81034"/>
<path d="M167.813 102.516L167.909 104.353L187.865 86.4433L167.813 102.516ZM186.392 79.3225L185.063 76.5528L183.324 74.3008L186.392 79.3225Z" fill="white"/>
<path d="M149.667 129.785L152.296 128.231L114.275 111.921L149.667 129.785ZM166.25 98.4787L165.274 97.6145L130.764 80.8145L166.25 98.4787Z" fill="#B81034"/>
<path d="M167.51 100.927L167.812 102.516L187.864 86.4434L167.51 100.927ZM149.666 129.785L146.902 131.157L177.555 124.494L149.666 129.785Z" fill="white"/>
<path d="M172.083 70.3314L136.487 52.8057L132.541 53.021L172.083 70.3314Z" fill="#B81034"/>
<path d="M166.993 99.5819L167.511 100.927L187.866 86.4434L166.993 99.5819Z" fill="white"/>
<path d="M139.593 133.343L104.189 115.419L102.118 115.506L139.593 133.343ZM165.273 97.6135L164.055 96.9857L129.78 79.9482L165.273 97.6135ZM146.902 131.156L149.666 129.784L111.508 113.275L146.902 131.156Z" fill="#B81034"/>
<path d="M166.248 98.4786L166.991 99.5819L187.864 86.4434L166.248 98.4786ZM146.902 131.157L144.293 132.206L177.554 124.494L146.902 131.157ZM165.273 97.6144L166.248 98.4786L187.864 86.4434L165.273 97.6144Z" fill="white"/>
<path d="M175.557 70.5814L178.581 71.3217L139.971 53.0703L175.557 70.5814ZM137.529 133.44L102.119 115.506L100.255 115.285L137.529 133.44Z" fill="#B81034"/>
<path d="M187.864 86.4435L183.323 74.3009L172.081 70.332L187.864 86.4435ZM144.293 132.206L141.853 132.934L177.554 124.494L144.293 132.206Z" fill="white"/>
<path d="M144.293 132.206L146.902 131.157L108.897 114.308L144.293 132.206ZM168.146 70.5658L132.54 53.0215L128.123 53.7102L168.146 70.5658Z" fill="#B81034"/>
<path d="M124.897 156.868L143.526 153.078L160.371 142.968L124.897 156.868Z" fill="white"/>
<path d="M135.671 133.227L100.255 115.285L98.6104 114.76L135.671 133.227Z" fill="#B81034"/>
<path d="M183.325 74.3009L181.168 72.5597L178.583 71.3223L183.325 74.3009ZM141.855 132.934L124.897 156.869L177.556 124.494L141.855 132.934Z" fill="white"/>
<path d="M141.853 132.933L144.293 132.205L106.453 115.021L141.853 132.933ZM172.081 70.3314L175.556 70.5813L136.485 52.8057L172.081 70.3314Z" fill="#B81034"/>
<path d="M133.416 156.419L138.281 155.115L143.526 153.079L133.416 156.419Z" fill="white"/>
<path d="M139.594 133.344L141.854 132.933L104.19 115.42L139.594 133.344ZM163.74 71.2769L128.124 53.71L123.225 54.8657L163.74 71.2769Z" fill="#B81034"/>
<path d="M183.324 74.3009L178.582 71.3223L172.083 70.332L183.324 74.3009Z" fill="white"/>
<path d="M137.528 133.44L139.593 133.344L102.118 115.507L137.528 133.44ZM168.146 70.5658L172.081 70.3319L132.539 53.0215L168.146 70.5658Z" fill="#B81034"/>
<path d="M124.897 156.869L133.417 156.419L143.526 153.079L124.897 156.869Z" fill="white"/>
<path d="M135.67 133.227L137.529 133.44L100.255 115.285L135.67 133.227Z" fill="#B81034"/>
<path d="M178.582 71.3223L175.558 70.582L172.083 70.332L178.582 71.3223Z" fill="white"/>
<path d="M134.034 132.707L135.672 133.227L98.6112 114.76L134.034 132.707ZM115.433 152.292L80.0469 134.181L82.7514 136.398L115.433 152.292ZM163.74 71.2775L168.148 70.5661L128.125 53.7105L163.74 71.2775ZM167.234 49.7269L131.53 32.2624L131.667 33.1931L167.234 49.7269ZM158.85 72.4599L123.226 54.8663L112.881 57.7063L158.85 72.4599ZM166.837 47.8375L131.124 30.3789L131.53 32.2624L166.837 47.8375Z" fill="#B81034"/>
<path d="M187.866 86.4435L172.083 70.332L145.784 76.042L187.866 86.4435ZM124.897 156.869L128.949 157L133.417 156.419L124.897 156.869ZM165.275 97.6146L187.866 86.4435L137.491 76.5269L165.275 97.6146Z" fill="white"/>
<path d="M166.214 46.1861L130.491 28.7314L131.123 30.3789L166.214 46.1861Z" fill="#B81034"/>
<path d="M141.855 132.934L139.595 133.344L124.897 156.869L141.855 132.934Z" fill="white"/>
<path d="M113.238 149.403L77.833 131.294L80.046 134.18L113.238 149.403ZM165.371 44.7799L129.64 27.3271L130.491 28.7304L165.371 44.7799ZM158.849 72.4589L163.74 71.2765L123.225 54.8652L158.849 72.4589Z" fill="#B81034"/>
<path d="M139.595 133.344L137.53 133.441L124.897 156.869L139.595 133.344ZM172.083 70.332L168.148 70.5659L163.741 71.2773L172.083 70.332Z" fill="white"/>
<path d="M129.538 124.846L94.0677 106.91L74.2559 117.439L129.538 124.846Z" fill="#B81034"/>
<path d="M186.351 39.549L185.809 34.9246L184.774 30.8047L186.351 39.549ZM137.53 133.44L135.672 133.227L124.897 156.868L137.53 133.44Z" fill="white"/>
<path d="M164.317 43.6295L128.577 26.1768L129.64 27.3274L164.317 43.6295ZM118.12 154.504L115.433 152.291L82.751 136.398L118.12 154.504Z" fill="#B81034"/>
<path d="M167.366 50.6598L186.413 40.5997L186.351 39.5488L167.366 50.6598ZM135.672 133.226L134.034 132.706L124.897 156.868L135.672 133.226Z" fill="white"/>
<path d="M111.558 145.853L76.1318 127.751L77.8339 131.295L111.558 145.853ZM148.521 75.3581L112.881 57.7063L110.139 58.3753L148.521 75.3581ZM163.057 42.7425L127.31 25.2878L128.578 26.1775L163.057 42.7425ZM175.872 19.9566L140.058 2.65137L136.664 1.48633L175.872 19.9566ZM167.366 50.6607L167.234 49.7269L131.667 33.1931L167.366 50.6607Z" fill="#B81034"/>
<path d="M134.034 132.708L132.63 131.885L124.897 156.869L134.034 132.708Z" fill="white"/>
<path d="M167.232 49.7262L166.835 47.8368L131.528 32.2617L167.232 49.7262Z" fill="#B81034"/>
<path d="M167.366 50.66L186.351 39.549L184.774 30.8047L167.366 50.66ZM164.057 96.9862L165.275 97.614L134.848 75.3963L164.057 96.9862ZM132.63 131.884L131.472 130.762L124.897 156.868L132.63 131.884Z" fill="white"/>
<path d="M145.783 76.0418L110.138 58.375L107.668 58.8226L145.783 76.0418Z" fill="#B81034"/>
<path d="M118.12 154.504L121.281 156.033L124.897 156.868L118.12 154.504ZM187.865 86.4431L145.783 76.0416L143.318 76.5021L187.865 86.4431ZM134.847 75.3965L162.587 96.5923L164.056 96.9864L134.847 75.3965Z" fill="white"/>
<path d="M166.836 47.8375L166.213 46.1861L131.123 30.3789L166.836 47.8375ZM110.407 141.649L74.959 123.558L76.1308 127.751L110.407 141.649Z" fill="#B81034"/>
<path d="M131.472 130.762L130.574 129.345L124.897 156.869L131.472 130.762Z" fill="white"/>
<path d="M115.433 152.292L113.239 149.405L80.0469 134.182L115.433 152.292Z" fill="#B81034"/>
<path d="M172.082 70.332L163.739 71.2773L148.52 75.3579L172.082 70.332ZM187.864 86.4435L143.317 76.5025L141.117 76.7379L187.864 86.4435Z" fill="white"/>
<path d="M148.521 75.3577L158.85 72.4595L112.88 57.7059L148.521 75.3577ZM143.318 76.5023L107.668 58.8225L105.463 59.047L143.318 76.5023ZM172.492 18.8014L136.664 1.48593L132.826 1L172.492 18.8014ZM166.214 46.1856L165.371 44.7805L130.491 28.731L166.214 46.1856Z" fill="#B81034"/>
<path d="M184.773 30.8052L183.254 27.2188L181.259 24.1953L184.773 30.8052ZM187.864 86.4435L141.117 76.7379L139.177 76.7465L187.864 86.4435Z" fill="white"/>
<path d="M165.371 44.7799L164.316 43.6292L129.64 27.3271L165.371 44.7799ZM109.808 136.801L74.3369 118.727L74.9593 123.557L109.808 136.801Z" fill="#B81034"/>
<path d="M113.238 149.403L118.119 154.504L124.896 156.868L113.238 149.403Z" fill="white"/>
<path d="M141.117 76.7376L105.462 59.047L103.517 59.0469L141.117 76.7376Z" fill="#B81034"/>
<path d="M167.232 49.7261L167.365 50.66L184.773 30.8047L167.232 49.7261ZM187.864 86.4429L139.177 76.746L137.489 76.5263L187.864 86.4429Z" fill="white"/>
<path d="M113.238 149.404L111.557 145.853L77.833 131.295L113.238 149.404Z" fill="#B81034"/>
<path d="M166.836 47.8367L167.233 49.7261L184.773 30.8047L166.836 47.8367ZM127.739 102.93L151.152 98.0386L154.015 97.302L127.739 102.93Z" fill="white"/>
<path d="M109.733 135.508L74.2559 117.438L74.3369 118.727L109.733 135.508ZM164.316 43.6295L163.056 42.7418L128.577 26.1768L164.316 43.6295Z" fill="#B81034"/>
<path d="M163.74 71.2773L158.849 72.4598L148.521 75.358L163.74 71.2773Z" fill="white"/>
<path d="M139.177 76.746L103.516 59.0467L101.823 58.8203L139.177 76.746Z" fill="#B81034"/>
<path d="M184.774 30.8058L181.26 24.1959L175.871 19.957L184.774 30.8058Z" fill="white"/>
<path d="M168.667 18.3303L132.825 1L128.551 1.22401L168.667 18.3303Z" fill="#B81034"/>
<path d="M136.044 102.138L140.887 100.956L151.152 98.0391L136.044 102.138Z" fill="white"/>
<path d="M145.783 76.0418L148.52 75.3578L110.138 58.375L145.783 76.0418Z" fill="#B81034"/>
<path d="M172.082 70.332L148.52 75.3579L145.782 76.042L172.082 70.332ZM130.572 129.345L109.732 135.509L124.896 156.869L130.572 129.345Z" fill="white"/>
<path d="M137.49 76.527L101.824 58.821L100.377 58.3669L137.49 76.527ZM172.493 18.8018L175.871 19.9566L136.664 1.48633L172.493 18.8018Z" fill="#B81034"/>
<path d="M111.735 85.71L160.858 96.4288L162.588 96.5917L111.735 85.71ZM113.239 149.403L115.433 152.291L118.12 154.504L113.239 149.403Z" fill="white"/>
<path d="M111.557 145.853L110.407 141.648L76.1311 127.75L111.557 145.853ZM143.317 76.502L145.783 76.0415L107.667 58.8223L143.317 76.502ZM109.733 135.508L129.538 124.846L74.2559 117.438L109.733 135.508Z" fill="#B81034"/>
<path d="M111.734 85.7115L158.858 96.496L160.857 96.4304L111.734 85.7115ZM181.259 24.1959L178.795 21.7651L175.87 19.957L181.259 24.1959ZM109.732 135.509L113.238 149.405L124.896 156.869L109.732 135.509Z" fill="white"/>
<path d="M164.403 18.5738L128.55 1.22363L123.848 2.18861L164.403 18.5738Z" fill="#B81034"/>
<path d="M111.734 85.71L156.58 96.7862L158.858 96.4945L111.734 85.71ZM127.739 102.93L136.043 102.137L151.151 98.0382L127.739 102.93ZM130.572 129.344L129.947 127.635L109.732 135.508L130.572 129.344Z" fill="white"/>
<path d="M141.117 76.7375L143.317 76.5021L105.462 59.0469L141.117 76.7375ZM110.407 141.648L109.808 136.802L74.959 123.557L110.407 141.648Z" fill="#B81034"/>
<path d="M165.273 97.6143L137.489 76.5266L136.048 76.0771L165.273 97.6143ZM129.947 127.635L129.607 125.639L109.732 135.508L129.947 127.635Z" fill="white"/>
<path d="M168.667 18.3303L172.492 18.8014L132.825 1L168.667 18.3303Z" fill="#B81034"/>
<path d="M111.734 85.7103L154.015 97.302L156.58 96.7866L111.734 85.7103ZM129.607 125.638L129.537 124.845L109.732 135.508L129.607 125.638ZM166.836 47.8367L184.773 30.8046L159.709 19.5635L166.836 47.8367ZM165.273 97.614L136.048 76.0769L134.846 75.3962L165.273 97.614Z" fill="white"/>
<path d="M139.177 76.7463L141.118 76.7376L103.517 59.0469L139.177 76.7463ZM118.616 100.244L83.005 82.3565L85.6261 83.7695L118.616 100.244ZM109.808 136.802L109.733 135.508L74.3369 118.727L109.808 136.802Z" fill="#B81034"/>
<path d="M184.773 30.8046L175.87 19.9558L159.709 19.5635L184.773 30.8046Z" fill="white"/>
<path d="M159.709 19.5633L123.848 2.18848L118.725 3.92564L159.709 19.5633ZM137.489 76.5261L139.177 76.7458L101.823 58.82L137.489 76.5261Z" fill="#B81034"/>
<path d="M110.407 141.648L111.557 145.853L113.239 149.404L110.407 141.648Z" fill="white"/>
<path d="M164.403 18.5738L168.667 18.33L128.551 1.22363L164.403 18.5738Z" fill="#B81034"/>
<path d="M166.213 46.1853L166.836 47.8367L159.71 19.5635L166.213 46.1853ZM127.739 102.93L131.664 102.795L136.044 102.138L127.739 102.93Z" fill="white"/>
<path d="M116.43 98.3308L80.8047 80.4414L83.0047 82.3562L116.43 98.3308ZM136.048 76.077L137.489 76.5264L100.376 58.3662L136.048 76.077Z" fill="#B81034"/>
<path d="M165.37 44.7802L166.213 46.1854L159.709 19.5636L165.37 44.7802ZM109.732 135.508L110.406 141.648L113.238 149.404L109.732 135.508ZM175.87 19.9559L172.491 18.8011L168.667 18.3301L175.87 19.9559ZM164.316 43.6295L165.37 44.7802L159.709 19.5636L164.316 43.6295Z" fill="white"/>
<path d="M154.593 21.3305L118.725 3.92578L113.189 6.46647L154.593 21.3305Z" fill="#B81034"/>
<path d="M163.055 42.7417L164.316 43.6294L159.709 19.5635L163.055 42.7417Z" fill="white"/>
<path d="M114.659 95.917L79.0176 78.0293L80.8052 80.4418L114.659 95.917Z" fill="#B81034"/>
<path d="M134.848 75.3965L111.735 85.7106L162.588 96.5923L134.848 75.3965Z" fill="white"/>
<path d="M159.711 19.5633L164.405 18.5736L123.849 2.18848L159.711 19.5633ZM121.225 101.65L118.617 100.243L85.627 83.7691L121.225 101.65Z" fill="#B81034"/>
<path d="M161.596 42.1254L163.055 42.7418L159.709 19.5636L161.596 42.1254ZM109.732 135.508L109.807 136.802L110.406 141.648L109.732 135.508ZM111.734 85.7104L127.739 102.93L154.015 97.3021L111.734 85.7104ZM175.87 19.9559L168.667 18.3301L159.709 19.5636L175.87 19.9559ZM159.946 41.7889L161.596 42.1254L159.709 19.5636L159.946 41.7889Z" fill="white"/>
<path d="M113.291 93.0061L77.6328 75.124L79.017 78.0296L113.291 93.0061Z" fill="#B81034"/>
<path d="M158.111 41.7406L159.947 41.7888L159.71 19.5635L158.111 41.7406Z" fill="white"/>
<path d="M149.062 23.9065L113.191 6.4668L107.871 9.51197L149.062 23.9065ZM118.617 100.244L116.432 98.3311L83.0059 82.3565L118.617 100.244Z" fill="#B81034"/>
<path d="M121.223 101.65L124.261 102.547L127.738 102.93L121.223 101.65ZM156.097 41.9894L158.11 41.7406L159.709 19.5635L156.097 41.9894Z" fill="white"/>
<path d="M154.593 21.3305L159.71 19.5635L118.725 3.92578L154.593 21.3305ZM112.32 89.6017L76.6436 71.729L77.6331 75.1232L112.32 89.6017Z" fill="#B81034"/>
<path d="M153.914 42.5438L156.098 41.9895L159.71 19.5636L153.914 42.5438ZM168.667 18.3301L164.404 18.5739L159.71 19.5636L168.667 18.3301Z" fill="white"/>
<path d="M143.742 26.9876L107.87 9.51172L102.833 13.0112L143.742 26.9876ZM116.43 98.3308L114.658 95.9166L80.8047 80.4413L116.43 98.3308Z" fill="#B81034"/>
<path d="M151.566 43.4121L153.914 42.5437L159.71 19.5635L151.566 43.4121ZM116.431 98.3307L121.224 101.65L127.739 102.93L116.431 98.3307Z" fill="white"/>
<path d="M111.735 85.711L76.04 67.8516L76.6442 71.7297L111.735 85.711Z" fill="#B81034"/>
<path d="M149.062 44.6032L151.566 43.4121L159.71 19.5635L149.062 44.6032Z" fill="white"/>
<path d="M149.061 23.9065L154.593 21.3308L113.189 6.4668L149.061 23.9065Z" fill="#B81034"/>
<path d="M146.603 46.0317L149.061 44.6032L159.709 19.5635L146.603 46.0317Z" fill="white"/>
<path d="M114.659 95.9162L113.291 93.005L79.0173 78.0285L114.659 95.9162ZM138.703 30.5234L102.833 13.0107L98.1149 16.9219L138.703 30.5234ZM111.527 81.3357L75.8115 63.4932L76.0394 67.8506L111.527 81.3357Z" fill="#B81034"/>
<path d="M144.298 47.6083L146.605 46.0317L159.711 19.5635L144.298 47.6083Z" fill="white"/>
<path d="M111.527 81.2514L75.8115 63.4092L75.8123 63.4931L111.527 81.2514Z" fill="#B81034"/>
<path d="M116.431 98.3307L118.616 100.243L121.224 101.65L116.431 98.3307ZM142.153 49.319L144.296 47.6083L159.71 19.5635L142.153 49.319ZM140.185 51.1497L142.153 49.319L159.71 19.5635L140.185 51.1497Z" fill="white"/>
<path d="M133.981 34.4722L98.1157 16.9223L93.752 21.202L133.981 34.4722ZM113.292 93.0054L112.32 89.6018L77.634 75.1233L113.292 93.0054ZM111.825 75.5946L76.0846 57.7768L75.8115 63.4097L111.825 75.5946ZM143.743 26.9876L149.062 23.9062L107.871 9.51172L143.743 26.9876Z" fill="#B81034"/>
<path d="M138.406 53.086L140.186 51.1497L159.711 19.5635L138.406 53.086ZM111.735 85.7103L116.432 98.3307L127.74 102.93L111.735 85.7103ZM134.848 75.3962L133.879 74.483L111.735 85.7103L134.848 75.3962ZM159.711 19.5635L154.594 21.3305L149.062 23.9061L159.711 19.5635Z" fill="white"/>
<path d="M129.609 38.7892L93.751 21.2021L89.7773 25.8069L129.609 38.7892Z" fill="#B81034"/>
<path d="M133.879 74.4832L133.137 73.3359L111.735 85.7105L133.879 74.4832Z" fill="white"/>
<path d="M112.749 69.9467L76.9857 52.1562L76.083 57.7773L112.749 69.9467ZM112.319 89.6022L111.734 85.7109L76.6428 71.7296L112.319 89.6022Z" fill="#B81034"/>
<path d="M133.137 73.3366L132.614 71.9541L111.735 85.7112L133.137 73.3366Z" fill="white"/>
<path d="M125.624 43.4315L89.7768 25.8076L86.2285 30.6934L125.624 43.4315Z" fill="#B81034"/>
<path d="M132.614 71.9542L132.304 70.335L111.735 85.7112L132.614 71.9542Z" fill="white"/>
<path d="M114.27 64.3519L78.4858 46.5913L76.9863 52.1554L114.27 64.3519ZM138.703 30.5234L143.742 26.9871L102.833 13.0107L138.703 30.5234Z" fill="#B81034"/>
<path d="M138.406 53.086L159.711 19.5635L111.735 85.7103L138.406 53.086ZM132.304 70.3341L132.199 68.4769L111.735 85.7103L132.304 70.3341Z" fill="white"/>
<path d="M122.064 48.3524L86.2287 30.6924L83.1409 35.8149L122.064 48.3524ZM116.352 58.8583L80.5483 41.1296L78.4854 46.5915L116.352 58.8583Z" fill="#B81034"/>
<path d="M113.292 93.006L114.66 95.9173L116.432 98.3315L113.292 93.006ZM132.199 68.4777L132.199 68.3936L111.735 85.7111L132.199 68.4777Z" fill="white"/>
<path d="M118.962 53.5105L83.1414 35.8154L80.5488 41.1301L118.962 53.5105Z" fill="#B81034"/>
<path d="M132.199 68.3925L132.333 66.1191L111.735 85.71L132.199 68.3925Z" fill="white"/>
<path d="M111.735 85.711L111.527 81.3367L76.04 67.8516L111.735 85.711Z" fill="#B81034"/>
<path d="M159.711 19.5635L149.062 23.9061L138.704 30.5238L159.711 19.5635ZM132.333 66.1194L132.737 63.8508L111.735 85.7103L132.333 66.1194ZM136.825 55.1137L138.406 53.086L111.735 85.7103L136.825 55.1137ZM132.737 63.8508L133.4 61.6014L111.735 85.7103L132.737 63.8508ZM135.456 57.2184L136.825 55.1137L111.735 85.7103L135.456 57.2184ZM133.4 61.6014L134.31 59.3858L111.735 85.7103L133.4 61.6014ZM134.31 59.3858L135.456 57.2184L111.735 85.7103L134.31 59.3858Z" fill="white"/>
<path d="M133.98 34.4727L138.703 30.5244L98.1149 16.9229L133.98 34.4727ZM111.527 81.3367L111.526 81.2524L75.8115 63.4942L111.527 81.3367Z" fill="#B81034"/>
<path d="M111.735 85.71L113.292 93.0049L116.432 98.3304L111.735 85.71Z" fill="white"/>
<path d="M111.527 81.252L111.825 75.5947L75.8115 63.4098L111.527 81.252ZM129.61 38.7892L133.981 34.4723L93.752 21.2021L129.61 38.7892Z" fill="#B81034"/>
<path d="M149.061 23.9062L143.742 26.9876L138.703 30.5239L149.061 23.9062Z" fill="white"/>
<path d="M111.823 75.5951L112.749 69.9467L76.083 57.7773L111.823 75.5951Z" fill="#B81034"/>
<path d="M111.735 85.7103L112.32 89.6017L113.292 93.0053L111.735 85.7103ZM159.711 19.5635L122.065 48.3525L111.735 85.7103L159.711 19.5635ZM159.711 19.5635L138.704 30.5238L122.065 48.3525L159.711 19.5635Z" fill="white"/>
<path d="M125.625 43.4315L129.609 38.7899L89.7775 25.8076L125.625 43.4315ZM112.749 69.947L114.27 64.3532L76.9863 52.1566L112.749 69.947ZM122.064 48.3535L125.625 43.4315L86.2292 30.6934L122.064 48.3535ZM114.27 64.3532L116.352 58.8594L78.4858 46.5926L114.27 64.3532ZM118.962 53.5111L122.064 48.3535L83.1414 35.816L118.962 53.5111ZM116.352 58.8594L118.962 53.5111L80.5488 41.1307L116.352 58.8594Z" fill="#B81034"/>
<path d="M111.527 81.2524L111.528 81.3367L111.735 85.711L111.527 81.2524ZM138.704 30.5244L133.981 34.4727L129.61 38.7896L138.704 30.5244ZM112.75 69.9467L111.527 81.2524L111.735 85.711L112.75 69.9467ZM112.75 69.9467L111.825 75.5951L111.527 81.2524L112.75 69.9467ZM138.704 30.5244L129.61 38.7896L122.065 48.3532L138.704 30.5244ZM122.065 48.3532L112.75 69.9467L111.735 85.711L122.065 48.3532ZM129.61 38.7896L125.626 43.4312L122.065 48.3532L129.61 38.7896ZM116.353 58.8591L114.271 64.3529L112.75 69.9467L116.353 58.8591ZM122.065 48.3532L116.353 58.8591L112.75 69.9467L122.065 48.3532ZM122.065 48.3532L118.963 53.5108L116.353 58.8591L122.065 48.3532Z" fill="white"/>
</svg>
