<svg width="248" height="156" viewBox="0 0 248 156" fill="none" xmlns="http://www.w3.org/2000/svg">
<path d="M225.897 127.622L247.367 115.93L228.398 81.6426L225.897 127.622Z" fill="white"/>
<path d="M225.897 127.621L208.869 95.6399L192.484 110.75L225.897 127.621ZM208.869 95.6399L175.263 78.8174L192.484 110.75L208.869 95.6399Z" fill="#B81034"/>
<path d="M237.342 69.5069L239.08 66.1122L240.607 62.6153L237.342 69.5069ZM208.868 95.6404L225.896 127.622L228.397 81.6421L208.868 95.6404ZM233.257 75.9053L237.342 69.5069L240.607 62.6153L233.257 75.9053ZM233.257 75.9053L235.399 72.7782L237.342 69.5069L233.257 75.9053ZM240.607 62.6153L241.919 59.037L243.008 55.3983L240.607 62.6153ZM233.257 75.9053L240.607 62.6153L244.498 48.0234L233.257 75.9053ZM240.607 62.6153L243.008 55.3983L244.498 48.0234L240.607 62.6153ZM228.397 81.6421L230.921 78.867L233.257 75.9053L228.397 81.6421Z" fill="white"/>
<path d="M222.567 64.5658L188.86 47.9297L187.655 50.2218L222.567 64.5658ZM223.572 62.1433L189.857 45.5214L188.86 47.9297L223.572 62.1433ZM221.356 66.8726L187.655 50.2218L186.25 52.3869L221.356 66.8726ZM224.366 59.616L190.641 43.0078L189.857 45.5214L224.366 59.616Z" fill="#B81034"/>
<path d="M243.009 55.3983L243.871 51.7201L244.499 48.0234L243.009 55.3983Z" fill="white"/>
<path d="M219.945 69.0524L186.25 52.3864L184.649 54.4136L219.945 69.0524ZM224.941 56.9941L191.206 40.3991L190.64 43.0073L224.941 56.9941ZM218.339 71.095L184.649 54.4136L182.857 56.2921L218.339 71.095ZM225.293 54.2896L191.547 37.707L191.206 40.3991L225.293 54.2896ZM216.544 72.9891L182.857 56.2921L180.881 58.0106L216.544 72.9891Z" fill="#B81034"/>
<path d="M244.5 48.0238L244.888 44.3297L245.03 40.6592L244.5 48.0238Z" fill="white"/>
<path d="M225.417 51.5126L191.658 34.9418L191.548 37.7071L225.417 51.5126ZM214.567 74.7236L180.882 58.0107L178.727 59.5582L214.567 74.7236ZM225.417 51.3544L191.658 34.7842L191.658 34.9418L225.417 51.3544Z" fill="#B81034"/>
<path d="M208.868 95.6404L228.397 81.6421L233.257 75.9053L208.868 95.6404Z" fill="white"/>
<path d="M225.301 48.7506L191.529 32.1904L191.658 34.7845L225.301 48.7506Z" fill="#B81034"/>
<path d="M244.5 48.0234L245.03 40.6588L244.81 35.2031L244.5 48.0234Z" fill="white"/>
<path d="M212.409 76.2876L178.725 59.5586L176.396 60.9239L212.409 76.2876Z" fill="#B81034"/>
<path d="M245.029 40.6588L245.03 40.5009L244.809 35.2031L245.029 40.6588Z" fill="white"/>
<path d="M224.942 46.444L191.159 29.8916L191.527 32.1904L224.942 46.444Z" fill="#B81034"/>
<path d="M233.258 75.9053L244.499 48.0235L239.14 20.4033L233.258 75.9053Z" fill="white"/>
<path d="M224.353 44.4419L190.56 27.8949L191.16 29.891L224.353 44.4419ZM221.356 66.8719L222.567 64.5651L187.655 50.221L221.356 66.8719ZM222.567 64.5651L223.572 62.1426L188.86 47.9289L222.567 64.5651ZM219.945 69.0521L221.356 66.8719L186.25 52.3862L219.945 69.0521ZM223.572 62.1426L224.366 59.6153L189.857 45.5207L223.572 62.1426ZM218.339 71.0948L219.945 69.0521L184.649 54.4134L218.339 71.0948ZM224.366 59.6153L224.941 56.9939L190.641 43.0071L224.366 59.6153ZM216.544 72.9889L218.339 71.0948L182.857 56.2918L216.544 72.9889ZM223.539 42.7527L189.736 26.209L190.56 27.8949L223.539 42.7527ZM224.941 56.9939L225.294 54.2894L191.206 40.3989L224.941 56.9939Z" fill="#B81034"/>
<path d="M222.568 64.5657L221.356 66.8725L233.258 75.9053L222.568 64.5657ZM223.573 62.1432L222.568 64.5657L233.258 75.9053L223.573 62.1432ZM244.499 48.0235L244.809 35.2032L239.14 20.4033L244.499 48.0235Z" fill="white"/>
<path d="M210.08 77.6689L176.397 60.9238L159.321 69.9063L210.08 77.6689Z" fill="#B81034"/>
<path d="M221.357 66.8721L219.945 69.0523L233.258 75.9049L221.357 66.8721Z" fill="white"/>
<path d="M236.572 18.3713L202.694 1.98441L199.67 0.639648L236.572 18.3713ZM214.565 74.7245L216.544 72.9901L180.881 58.0115L214.565 74.7245Z" fill="#B81034"/>
<path d="M219.945 69.0527L218.339 71.0954L233.257 75.9053L219.945 69.0527Z" fill="white"/>
<path d="M225.294 54.2896L225.417 51.5126L191.548 37.707L225.294 54.2896Z" fill="#B81034"/>
<path d="M244.809 35.2036L244.101 30.5314L242.914 26.498L244.809 35.2036ZM218.34 71.0959L216.545 72.99L233.258 75.9058L218.34 71.0959Z" fill="white"/>
<path d="M222.509 41.3846L188.696 24.8418L189.737 26.21L222.509 41.3846ZM225.417 51.5134L225.418 51.3551L191.659 34.9426L225.417 51.5134Z" fill="#B81034"/>
<path d="M216.544 72.9902L214.565 74.7246L233.257 75.906L216.544 72.9902Z" fill="white"/>
<path d="M212.41 76.2876L214.567 74.724L178.727 59.5586L212.41 76.2876Z" fill="#B81034"/>
<path d="M223.572 62.1432L233.257 75.9053L239.14 20.4033L223.572 62.1432Z" fill="white"/>
<path d="M225.417 51.3544L225.3 48.7503L191.657 34.7842L225.417 51.3544Z" fill="#B81034"/>
<path d="M214.566 74.7246L212.409 76.2881L233.258 75.906L214.566 74.7246Z" fill="white"/>
<path d="M221.266 40.3429L187.445 23.7988L188.695 24.8417L221.266 40.3429ZM210.079 77.6693L212.409 76.2879L176.396 60.9242L210.079 77.6693ZM225.299 48.751L224.942 46.4444L191.528 32.1908L225.299 48.751Z" fill="#B81034"/>
<path d="M212.41 76.2874L210.08 77.6688L233.258 75.9053L212.41 76.2874Z" fill="white"/>
<path d="M233.563 17.0339L199.671 0.639208L196.216 0L233.563 17.0339Z" fill="#B81034"/>
<path d="M244.809 35.2032L242.914 26.4976L239.141 20.4033L244.809 35.2032Z" fill="white"/>
<path d="M224.942 46.444L224.353 44.4425L191.159 29.8916L224.942 46.444Z" fill="#B81034"/>
<path d="M193.012 86.7651L208.87 95.6404L233.259 75.9053L193.012 86.7651ZM173.789 156L193.153 145.454L193.054 104.124L173.789 156Z" fill="white"/>
<path d="M224.355 44.4425L223.541 42.7533L190.562 27.8955L224.355 44.4425Z" fill="#B81034"/>
<path d="M242.913 26.4976L241.256 23.117L239.14 20.4033L242.913 26.4976ZM224.366 59.6159L223.572 62.1432L239.14 20.4033L224.366 59.6159Z" fill="white"/>
<path d="M230.12 16.4074L196.215 0L192.338 0.0811869L230.12 16.4074Z" fill="#B81034"/>
<path d="M224.941 56.9945L224.366 59.6159L239.14 20.4033L224.941 56.9945ZM210.079 77.6689L193.011 86.7652L233.258 75.9053L210.079 77.6689Z" fill="white"/>
<path d="M223.541 42.7527L222.509 41.3836L189.737 26.209L223.541 42.7527Z" fill="#B81034"/>
<path d="M239.141 20.4033L225.295 54.29L224.942 56.9945L239.141 20.4033Z" fill="white"/>
<path d="M233.562 17.0344L236.572 18.3713L199.67 0.639648L233.562 17.0344Z" fill="#B81034"/>
<path d="M239.139 20.4033L225.415 51.513L225.293 54.29L239.139 20.4033ZM239.139 20.4033L225.416 51.3547L225.415 51.513L239.139 20.4033Z" fill="white"/>
<path d="M222.509 41.3846L221.267 40.343L188.696 24.8418L222.509 41.3846Z" fill="#B81034"/>
<path d="M239.139 20.4033L225.299 48.7506L225.416 51.3547L239.139 20.4033ZM239.139 20.4033L224.942 46.4441L225.299 48.7506L239.139 20.4033Z" fill="white"/>
<path d="M226.253 16.5058L192.338 0.0810547L188.048 0.897581L226.253 16.5058ZM193.012 86.7651L210.08 77.6689L159.321 69.9063L193.012 86.7651Z" fill="#B81034"/>
<path d="M239.141 20.4033L224.354 44.4425L224.944 46.4441L239.141 20.4033Z" fill="white"/>
<path d="M230.12 16.4074L233.563 17.0339L196.216 0L230.12 16.4074Z" fill="#B81034"/>
<path d="M239.14 20.4027L223.539 42.7527L224.353 44.4419L239.14 20.4027ZM193.011 86.7645L193.053 104.123L208.869 95.6398L193.011 86.7645ZM239.14 20.4027L222.508 41.3835L223.539 42.7527L239.14 20.4027ZM239.14 20.4027L236.572 18.3701L233.562 17.0332L239.14 20.4027Z" fill="white"/>
<path d="M221.97 17.3456L188.047 0.898438L183.354 2.46537L221.97 17.3456Z" fill="#B81034"/>
<path d="M239.141 20.4033L221.267 40.3425L222.509 41.3842L239.141 20.4033ZM193.012 86.7652L173.789 156L193.054 104.124L193.012 86.7652Z" fill="white"/>
<path d="M226.253 16.5058L230.12 16.4072L192.338 0.0810547L226.253 16.5058Z" fill="#B81034"/>
<path d="M239.14 20.4033L219.822 39.6361L221.266 40.3425L239.14 20.4033ZM239.14 20.4033L218.182 39.2727L219.822 39.6361L239.14 20.4033ZM239.14 20.4033L233.562 17.0338L226.252 16.5059L239.14 20.4033Z" fill="white"/>
<path d="M217.283 18.9392L183.354 2.46484L178.267 4.7973L217.283 18.9392Z" fill="#B81034"/>
<path d="M239.139 20.4033L216.354 39.2599L218.181 39.2727L239.139 20.4033Z" fill="white"/>
<path d="M173.789 156.001L173.211 41.6529L140.356 138.778L173.789 156.001ZM221.971 17.3456L226.253 16.5067L188.048 0.898438L221.971 17.3456Z" fill="#B81034"/>
<path d="M233.562 17.0348L230.119 16.4082L226.252 16.5068L233.562 17.0348Z" fill="white"/>
<path d="M217.282 18.9392L221.97 17.345L183.354 2.46484L217.282 18.9392Z" fill="#B81034"/>
<path d="M193.012 86.7656L192.924 50.2852L173.789 156L193.012 86.7656Z" fill="white"/>
<path d="M212.199 21.3034L217.283 18.9388L178.267 4.79688L212.199 21.3034Z" fill="#B81034"/>
<path d="M226.252 16.5059L221.971 17.3447L217.283 18.9389L226.252 16.5059Z" fill="white"/>
<path d="M212.199 21.3034L178.267 4.79688L139.264 24.8886L212.199 21.3034ZM173.21 41.6519L139.264 24.8886L140.356 138.777L173.21 41.6519Z" fill="#B81034"/>
<path d="M239.14 20.4033L173.21 41.652L216.354 39.2599L239.14 20.4033ZM239.14 20.4033L226.252 16.5059L173.21 41.652L239.14 20.4033ZM173.21 41.652L214.346 39.6055L216.354 39.2599L173.21 41.652ZM192.923 50.2847L173.21 41.652L173.788 156L192.923 50.2847ZM173.21 41.652L212.165 40.3174L214.346 39.6055L173.21 41.652ZM173.21 41.652L209.818 41.4032L212.165 40.3174L173.21 41.652ZM226.252 16.5059L217.282 18.9389L173.21 41.652L226.252 16.5059ZM217.282 18.9389L212.199 21.3035L173.21 41.652L217.282 18.9389ZM173.21 41.652L192.923 50.2847L209.818 41.4032L173.21 41.652Z" fill="white"/>
<path d="M173.21 41.6522L212.199 21.3037L139.264 24.8889L173.21 41.6522Z" fill="#B81034"/>
<path d="M8.70585 107.396L12.3312 115.139L16.5336 122.394L8.70585 107.396ZM3.27148 90.6035L5.67867 99.2044L8.70585 107.396L3.27148 90.6035ZM8.70585 107.396L16.5336 122.394L26.5892 135.279L8.70585 107.396ZM16.5336 122.394L21.2929 129.121L26.5892 135.279L16.5336 122.394Z" fill="white"/>
<path d="M29.7109 112.408L65.266 94.6039L62.9767 90.0727L29.7109 112.408ZM27.4077 107.848L62.9767 90.0727L61.0075 85.1779L27.4077 107.848ZM32.3199 116.578L67.8635 98.7452L65.266 94.6039L32.3199 116.578ZM25.4219 102.925L61.0075 85.1779L59.3701 79.9453L25.4219 102.925ZM35.223 120.331L70.758 102.47L67.8635 98.7452L35.223 120.331Z" fill="#B81034"/>
<path d="M0.408203 72.3271L3.27119 90.6035L8.70556 107.396L0.408203 72.3271Z" fill="white"/>
<path d="M23.7669 97.6648L59.3716 79.9462L58.0782 74.4016L23.7669 97.6648ZM38.4105 123.641L73.9397 105.753L70.7595 102.471L38.4105 123.641ZM22.4521 92.0921L58.0782 74.4016L57.1414 68.5703L22.4521 92.0921Z" fill="#B81034"/>
<path d="M0.408203 72.3271L1.50662 81.6317L3.27119 90.6035L0.408203 72.3271Z" fill="white"/>
<path d="M41.8682 126.48L77.3945 108.565L73.9395 105.753L41.8682 126.48Z" fill="#B81034"/>
<path d="M26.5889 135.278L32.4034 140.825L38.7177 145.719L26.5889 135.278Z" fill="white"/>
<path d="M21.4902 86.233L57.1401 68.5701L56.5725 62.4775L21.4902 86.233Z" fill="#B81034"/>
<path d="M8.70508 107.396L26.5885 135.278L51.2277 152.682L8.70508 107.396Z" fill="white"/>
<path d="M45.5858 128.82L81.1122 110.879L77.3933 108.565L45.5858 128.82ZM27.4078 107.849L29.711 112.409L62.9768 90.0739L27.4078 107.849ZM20.8965 80.1139L56.5724 62.478L56.3871 56.1494L20.8965 80.1139ZM29.711 112.409L32.32 116.579L65.2661 94.605L29.711 112.409ZM25.422 102.926L27.4078 107.849L61.0076 85.179L25.422 102.926Z" fill="#B81034"/>
<path d="M1.30525 45.0781L0.408203 72.3267L8.70556 107.395L1.30525 45.0781Z" fill="white"/>
<path d="M32.322 116.578L35.2251 120.331L67.8657 98.7452L32.322 116.578ZM48.4383 130.19L83.9666 112.23L81.1142 110.878L48.4383 130.19ZM23.7676 97.6639L25.424 102.925L59.3722 79.9453L23.7676 97.6639Z" fill="#B81034"/>
<path d="M26.5895 135.278L38.7183 145.719L51.2287 152.682L26.5895 135.278ZM0 62.5605L0.000925149 62.727L0.408745 72.3265L0 62.5605ZM8.7061 107.395L29.7117 112.408L27.4085 107.848L8.7061 107.395ZM8.7061 107.395L27.4085 107.848L25.4227 102.925L8.7061 107.395ZM8.7061 107.395L32.3207 116.578L29.7117 112.408L8.7061 107.395Z" fill="white"/>
<path d="M35.2237 120.332L38.4097 123.642L70.7588 102.472L35.2237 120.332ZM20.6836 73.7591L56.3877 56.1496L56.388 55.9834L20.6836 73.7591ZM22.4514 92.0925L23.7662 97.6652L58.0775 74.402L22.4514 92.0925Z" fill="#B81034"/>
<path d="M8.70508 107.396L25.4216 102.926L23.7652 97.665L8.70508 107.396ZM8.70508 107.396L35.2227 120.332L32.3196 116.579L8.70508 107.396Z" fill="white"/>
<path d="M20.6836 73.5909L56.3885 55.982L56.5939 49.8506L20.6836 73.5909ZM51.1455 131.148L86.6772 113.172L83.9657 112.23L51.1455 131.148Z" fill="#B81034"/>
<path d="M8.70508 107.396L23.7652 97.6645L22.4504 92.0918L8.70508 107.396ZM8.70508 107.396L38.4088 123.641L35.2227 120.331L8.70508 107.396Z" fill="white"/>
<path d="M38.4092 123.641L41.8671 126.48L73.9384 105.753L38.4092 123.641ZM21.4902 86.2333L22.4509 92.0921L57.1401 68.5703L21.4902 86.2333Z" fill="#B81034"/>
<path d="M8.7061 107.395L22.4514 92.0916L21.4908 86.2328L8.7061 107.395ZM1.30579 45.0781L0 62.5608L0.408745 72.3267L1.30579 45.0781ZM38.7183 145.719L45.5145 149.915L51.2287 152.682L38.7183 145.719Z" fill="white"/>
<path d="M53.7002 131.703L89.2366 113.713L86.6767 113.173L53.7002 131.703Z" fill="#B81034"/>
<path d="M8.70508 107.395L21.4898 86.2329L20.8962 80.1133L8.70508 107.395Z" fill="white"/>
<path d="M41.8678 126.48L45.5867 128.82L77.3941 108.565L41.8678 126.48ZM20.8974 80.1136L21.491 86.2332L56.5733 62.4777L20.8974 80.1136ZM20.8604 67.4366L56.5936 49.8515L57.1815 44.3447L20.8604 67.4366Z" fill="#B81034"/>
<path d="M8.70508 107.396L20.8962 80.1138L20.6826 73.7588L8.70508 107.396Z" fill="white"/>
<path d="M56.0908 131.859L91.6332 113.858L89.2358 113.713L56.0908 131.859Z" fill="#B81034"/>
<path d="M1.30579 45.0781L0.302639 53.319L0 62.5608L1.30579 45.0781Z" fill="white"/>
<path d="M45.5869 128.819L48.4374 130.19L81.1133 110.878L45.5869 128.819Z" fill="#B81034"/>
<path d="M8.70508 107.396L20.6826 73.7586L20.6821 73.5918L8.70508 107.396ZM8.70508 107.396L51.2277 152.682L70.8315 155.492L8.70508 107.396Z" fill="white"/>
<path d="M20.6836 73.759L20.8971 80.1139L56.3877 56.1494L20.6836 73.759Z" fill="#B81034"/>
<path d="M8.70508 107.396L70.8315 155.492L38.4088 123.641L8.70508 107.396Z" fill="white"/>
<path d="M21.4209 61.9097L57.1808 44.3443L58.1392 39.4775L21.4209 61.9097Z" fill="#B81034"/>
<path d="M8.70508 107.396L20.6821 73.5918L20.8592 67.4365L8.70508 107.396Z" fill="white"/>
<path d="M58.3087 131.626L93.8584 113.615L91.6344 113.858L58.3087 131.626ZM20.6836 73.5923L20.6841 73.7591L56.3885 55.9834L20.6836 73.5923ZM48.4374 130.191L51.1456 131.149L83.9657 112.231L48.4374 130.191Z" fill="#B81034"/>
<path d="M20.8592 67.4366L21.4203 61.9102L8.70508 107.396L20.8592 67.4366Z" fill="white"/>
<path d="M20.8606 67.4364L20.6836 73.5917L56.5939 49.8514L20.8606 67.4364ZM60.3398 131.009L95.898 112.992L93.8584 113.615L60.3398 131.009ZM51.1456 131.149L53.7007 131.702L86.6772 113.173L51.1456 131.149ZM22.3554 57.0277L58.1401 39.4778L59.4571 35.2666L22.3554 57.0277Z" fill="#B81034"/>
<path d="M51.2277 152.683L56.6445 154.61L61.7361 155.711L51.2277 152.683ZM21.4203 61.9106L22.3539 57.0283L8.70508 107.396L21.4203 61.9106Z" fill="white"/>
<path d="M53.7004 131.703L56.0918 131.86L89.2368 113.713L53.7004 131.703ZM21.4215 61.9106L20.8604 67.4371L57.1815 44.3452L21.4215 61.9106ZM23.6492 52.8059L59.4568 35.2672L61.1203 31.7275L23.6492 52.8059Z" fill="#B81034"/>
<path d="M70.8328 155.492L41.868 126.479L38.4102 123.641L70.8328 155.492Z" fill="white"/>
<path d="M56.0908 131.859L58.3075 131.625L91.6332 113.857L56.0908 131.859ZM74.7784 154.2L110.273 136.024L113.799 133.954L74.7784 154.2Z" fill="#B81034"/>
<path d="M5.33465 31.6914L2.98888 37.8612L1.30469 45.0783L5.33465 31.6914ZM51.2276 152.682L61.736 155.71L70.8314 155.492L51.2276 152.682ZM70.8314 155.492L45.5854 128.819L41.8665 126.479L70.8314 155.492Z" fill="white"/>
<path d="M22.3545 57.0281L21.4209 61.9103L58.1392 39.4781L22.3545 57.0281ZM58.3078 131.626L60.3389 131.01L93.8575 113.615L58.3078 131.626ZM25.2913 49.259L61.1197 31.7273L63.1177 28.875L25.2913 49.259Z" fill="#B81034"/>
<path d="M32.1995 18.0381L1.30469 45.0782L8.70499 107.395L32.1995 18.0381ZM70.8314 155.492L48.4359 130.19L45.5854 128.819L70.8314 155.492ZM70.8314 155.492L51.144 131.149L48.4359 130.19L70.8314 155.492Z" fill="white"/>
<path d="M78.2863 152.139L113.799 133.954L116.86 131.135L78.2863 152.139ZM23.6486 52.8053L22.3545 57.0277L59.4562 35.2666L23.6486 52.8053Z" fill="#B81034"/>
<path d="M61.7363 155.711L66.4748 156L70.8317 155.492L61.7363 155.711Z" fill="white"/>
<path d="M27.2715 46.4044L63.1184 28.8754L65.4388 26.7266L27.2715 46.4044Z" fill="#B81034"/>
<path d="M70.8314 155.492L53.6992 131.702L51.144 131.149L70.8314 155.492ZM11.9328 22.59L5.33465 31.6913L1.30469 45.0782L11.9328 22.59ZM70.8314 155.492L56.0905 131.859L53.6992 131.702L70.8314 155.492ZM22.3538 57.0275L32.1995 18.0381L8.70499 107.395L22.3538 57.0275Z" fill="white"/>
<path d="M25.2926 49.2591L23.6498 52.8058L61.121 31.7274L25.2926 49.2591ZM81.3267 149.322L116.861 131.135L119.425 127.581L81.3267 149.322ZM29.5762 44.2568L65.4394 26.7263L68.07 25.2971L29.5762 44.2568ZM78.2875 152.139L74.78 154.2L113.801 133.955L78.2875 152.139ZM20.9434 17.9722L56.9011 0.586914L52.0839 2.3373L20.9434 17.9722ZM27.2721 46.4041L25.2926 49.2591L63.119 28.8751L27.2721 46.4041Z" fill="#B81034"/>
<path d="M11.9351 22.5898L8.32476 26.5926L5.33691 31.6912L11.9351 22.5898Z" fill="white"/>
<path d="M83.8679 145.765L119.425 127.58L121.464 123.306L83.8679 145.765ZM81.3263 149.322L78.2871 152.139L116.86 131.135L81.3263 149.322Z" fill="#B81034"/>
<path d="M70.832 155.492L74.7787 154.2L78.2863 152.139L70.832 155.492Z" fill="white"/>
<path d="M29.576 44.2563L27.2719 46.4036L65.4392 26.7258L29.576 44.2563ZM26.3012 17.4066L62.2767 0L56.9009 0.586386L26.3012 17.4066ZM16.1475 19.708L20.9431 17.9717L52.0837 2.33677L16.1475 19.708ZM85.8825 141.482L121.464 123.306L122.948 118.326L85.8825 141.482Z" fill="#B81034"/>
<path d="M32.1995 18.0381L11.9328 22.59L1.30469 45.0782L32.1995 18.0381Z" fill="white"/>
<path d="M32.1919 42.8333L29.5752 44.2566L68.0689 25.2969L32.1919 42.8333ZM83.8672 145.765L81.3257 149.322L119.424 127.581L83.8672 145.765ZM88.2849 129.92L123.925 111.779L103.782 101.099L88.2849 129.92Z" fill="#B81034"/>
<path d="M88.2843 129.92L58.3075 131.625L56.0908 131.859L88.2843 129.92ZM70.8317 155.492L78.2859 152.139L83.8667 145.765L70.8317 155.492ZM70.8317 155.492L88.2843 129.92L56.0908 131.859L70.8317 155.492ZM88.2843 129.92L60.3386 131.009L58.3075 131.625L88.2843 129.92Z" fill="white"/>
<path d="M87.3398 136.491L122.948 118.327L123.847 112.659L87.3398 136.491Z" fill="#B81034"/>
<path d="M22.3545 57.0275L23.6486 52.8051L32.2002 18.0381L22.3545 57.0275Z" fill="white"/>
<path d="M32.2002 18.0383L68.1894 0.60311L62.2757 0L32.2002 18.0383Z" fill="#B81034"/>
<path d="M88.2856 129.92L62.1744 130.018L60.3398 131.009L88.2856 129.92Z" fill="white"/>
<path d="M68.1499 119.105L88.2859 129.92L103.783 101.099L68.1499 119.105ZM20.9434 17.9722L26.3015 17.4071L56.9011 0.586914L20.9434 17.9722ZM85.8827 141.483L83.8683 145.765L121.464 123.306L85.8827 141.483Z" fill="#B81034"/>
<path d="M20.9423 17.9717L16.1466 19.708L11.9336 22.5902L20.9423 17.9717Z" fill="white"/>
<path d="M88.2119 130.803L123.848 112.658L123.926 111.778L88.2119 130.803Z" fill="#B81034"/>
<path d="M88.2855 129.92L63.8012 128.659L62.1743 130.018L88.2855 129.92ZM78.2871 152.138L81.3263 149.322L83.8678 145.765L78.2871 152.138ZM23.6494 52.8051L25.2922 49.2584L32.201 18.0381L23.6494 52.8051ZM88.2855 129.92L65.2095 126.94L63.8012 128.659L88.2855 129.92ZM25.2922 49.2584L27.2717 46.4034L32.201 18.0381L25.2922 49.2584ZM70.8329 155.492L83.8678 145.765L88.2855 129.92L70.8329 155.492Z" fill="white"/>
<path d="M87.3396 136.49L85.8818 141.482L122.948 118.326L87.3396 136.49Z" fill="#B81034"/>
<path d="M88.285 129.919L66.3874 124.868L65.209 126.94L88.285 129.919Z" fill="white"/>
<path d="M38.6206 19.8923L74.6194 2.42121L68.189 0.60311L38.6206 19.8923ZM26.2998 17.4066L32.1998 18.0383L62.2753 0L26.2998 17.4066Z" fill="#B81034"/>
<path d="M88.2848 129.92L67.3248 122.453L66.3873 124.869L88.2848 129.92ZM27.271 46.4036L29.5751 44.2563L32.2003 18.0383L27.271 46.4036ZM32.2003 18.0383L20.9423 17.9717L11.9336 22.5902L32.2003 18.0383ZM88.2848 129.92L68.0103 119.699L67.3248 122.453L88.2848 129.92Z" fill="white"/>
<path d="M88.2114 130.804L87.3398 136.491L123.847 112.659L88.2114 130.804Z" fill="#B81034"/>
<path d="M88.2849 129.92L68.1488 119.105L68.0103 119.699L88.2849 129.92ZM29.5752 44.2561L32.1919 42.8327L32.2004 18.0381L29.5752 44.2561Z" fill="white"/>
<path d="M88.2859 129.92L88.2119 130.803L123.926 111.778L88.2859 129.92Z" fill="#B81034"/>
<path d="M83.8672 145.765L85.8816 141.483L87.3394 136.49L83.8672 145.765Z" fill="white"/>
<path d="M45.542 22.9938L81.5459 5.47942L74.6204 2.4209L45.542 22.9938Z" fill="#B81034"/>
<path d="M32.1914 42.8327L35.1084 42.1494L32.1999 18.0381L32.1914 42.8327Z" fill="white"/>
<path d="M32.2002 18.0377L38.621 19.8917L68.1894 0.602539L32.2002 18.0377Z" fill="#B81034"/>
<path d="M32.2014 18.0379L26.3015 17.4062L20.9434 17.9713L32.2014 18.0379ZM83.8683 145.765L87.3404 136.49L88.2859 129.92L83.8683 145.765ZM35.1099 42.1493L38.3148 42.2223L32.2014 18.0379L35.1099 42.1493Z" fill="white"/>
<path d="M51.2666 26.3582L87.2711 8.80465L81.5463 5.47949L51.2666 26.3582Z" fill="#B81034"/>
<path d="M38.3136 42.2224L41.7938 43.0678L32.2002 18.0381L38.3136 42.2224ZM87.3392 136.49L88.2107 130.803L88.2847 129.92L87.3392 136.49Z" fill="white"/>
<path d="M38.6221 19.892L45.5425 22.9938L74.6208 2.4209L38.6221 19.892Z" fill="#B81034"/>
<path d="M41.7938 43.0678L45.5368 44.7015L32.2002 18.0381L41.7938 43.0678Z" fill="white"/>
<path d="M56.7217 30.3179L92.7233 12.724L87.2713 8.80469L56.7217 30.3179Z" fill="#B81034"/>
<path d="M45.5368 44.7015L48.4073 46.4007L32.2002 18.0381L45.5368 44.7015ZM48.4073 46.4007L51.1449 48.4013L32.2002 18.0381L48.4073 46.4007ZM51.1449 48.4013L53.7359 50.6792L32.2002 18.0381L51.1449 48.4013Z" fill="white"/>
<path d="M88.4388 90.9569L124.254 72.9723L124.264 71.9624L88.4388 90.9569ZM61.8711 34.8172L97.8665 17.1818L92.724 12.7246L61.8711 34.8172Z" fill="#B81034"/>
<path d="M53.7359 50.6792L56.1664 53.2103L32.2002 18.0381L53.7359 50.6792Z" fill="white"/>
<path d="M45.542 22.9939L51.2662 26.3582L81.5459 5.47949L45.542 22.9939Z" fill="#B81034"/>
<path d="M56.1664 53.2103L58.4227 55.9705L32.2002 18.0381L56.1664 53.2103Z" fill="white"/>
<path d="M88.4434 89.9429L124.263 71.9625L123.52 65.2773L88.4434 89.9429Z" fill="#B81034"/>
<path d="M58.4227 55.9705L60.4912 58.9353L32.2002 18.0381L58.4227 55.9705ZM45.5414 22.9939L38.621 19.8921L32.2002 18.0381L45.5414 22.9939Z" fill="white"/>
<path d="M66.6759 39.7967L102.662 22.1195L97.8656 17.1812L66.6759 39.7967ZM87.6726 83.2261L123.52 65.2766L122.15 58.6029L87.6726 83.2261ZM51.2666 26.3582L56.7215 30.3179L87.2711 8.80469L51.2666 26.3582ZM71.1019 45.2006L107.076 27.4814L102.662 22.1195L71.1019 45.2006ZM86.2757 76.5187L122.15 58.6029L120.185 52L86.2757 76.5187ZM75.1118 50.9698L111.07 33.209L107.076 27.4814L75.1118 50.9698Z" fill="#B81034"/>
<path d="M56.7206 30.3179L45.5414 22.9939L32.2002 18.0381L56.7206 30.3179Z" fill="white"/>
<path d="M84.2869 69.8802L120.185 52.0006L117.661 45.5279L84.2869 69.8802ZM78.6699 57.0463L114.611 39.2446L111.071 33.2097L78.6699 57.0463ZM81.7399 63.3693L117.661 45.5279L114.611 39.2446L81.7399 63.3693ZM56.7217 30.3186L61.8704 34.8172L92.7233 12.7246L56.7217 30.3186Z" fill="#B81034"/>
<path d="M60.4912 58.9353L75.1109 50.9698L32.2002 18.0381L60.4912 58.9353Z" fill="white"/>
<path d="M88.4433 89.9423L88.4375 90.9564L124.263 71.9619L88.4433 89.9423Z" fill="#B81034"/>
<path d="M68.2016 79.6446L68.1998 80.2346L75.11 50.9697L68.2016 79.6446ZM67.5424 75.9689L68.2016 79.6446L75.11 50.9697L67.5424 75.9689ZM66.6152 72.3498L67.5424 75.9689L75.11 50.9697L66.6152 72.3498Z" fill="white"/>
<path d="M61.8711 34.817L66.6767 39.7971L97.8665 17.1816L61.8711 34.817ZM87.6735 83.2266L88.4446 89.9426L123.521 65.2771L87.6735 83.2266Z" fill="#B81034"/>
<path d="M65.4341 68.8123L66.6162 72.3499L75.1109 50.9698L65.4341 68.8123ZM60.4912 58.9353L62.3583 62.0803L75.1109 50.9698L60.4912 58.9353ZM64.0104 65.3809L65.4341 68.8123L75.1109 50.9698L64.0104 65.3809ZM62.3583 62.0803L64.0104 65.3809L75.1109 50.9698L62.3583 62.0803ZM56.7206 30.318L51.2657 26.3582L45.5414 22.9939L56.7206 30.318ZM75.1109 50.9698L56.7206 30.318L32.2002 18.0381L75.1109 50.9698ZM68.2008 80.2348L88.437 90.9562L88.4428 89.9422L68.2008 80.2348Z" fill="white"/>
<path d="M66.6748 39.7963L71.1008 45.2003L102.661 22.1191L66.6748 39.7963ZM86.2747 76.5183L87.6716 83.2258L122.149 58.6026L86.2747 76.5183Z" fill="#B81034"/>
<path d="M68.2012 80.2356L88.4432 89.943L86.2753 76.5195L68.2012 80.2356Z" fill="white"/>
<path d="M71.1025 45.2006L75.1125 50.9699L107.076 27.4814L71.1025 45.2006ZM84.2874 69.8796L86.2764 76.5187L120.186 52L84.2874 69.8796ZM75.1125 50.9699L78.6704 57.0456L111.071 33.2091L75.1125 50.9699ZM81.7404 63.3687L84.2874 69.8796L117.661 45.5273L81.7404 63.3687ZM78.6704 57.0456L81.7404 63.3687L114.611 39.2439L78.6704 57.0456Z" fill="#B81034"/>
<path d="M68.2018 80.2352L86.2759 76.5191L75.112 50.9703L68.2018 80.2352ZM66.676 39.7971L61.8704 34.8169L56.7217 30.3184L66.676 39.7971ZM88.4438 89.9426L87.6728 83.2265L86.2759 76.5191L88.4438 89.9426ZM75.112 50.9703L66.676 39.7971L56.7217 30.3184L75.112 50.9703ZM75.112 50.9703L71.102 45.201L66.676 39.7971L75.112 50.9703ZM86.2759 76.5191L84.2869 69.88L81.7399 63.3691L86.2759 76.5191ZM86.2759 76.5191L81.7399 63.3691L75.112 50.9703L86.2759 76.5191ZM81.7399 63.3691L78.6699 57.046L75.112 50.9703L81.7399 63.3691Z" fill="white"/>
</svg>
