<svg width="228" height="156" viewBox="0 0 228 156" fill="none" xmlns="http://www.w3.org/2000/svg">
<path d="M17.9431 128.637L48.6724 113.136L48.7533 75.4424L17.9431 128.637Z" fill="#B81034"/>
<path d="M0.516541 119.147L17.944 128.638L17.8537 90.7939L0.516541 119.147Z" fill="white"/>
<path d="M17.8531 90.7939L17.9435 128.637L48.7537 75.4424L17.8531 90.7939Z" fill="#B81034"/>
<path d="M17.8158 74.9006L0.516541 119.147L17.8537 90.7939L17.8158 74.9006Z" fill="white"/>
<path d="M17.8144 74.9006L48.7868 59.6127L48.8582 26.3486L17.8144 74.9006Z" fill="#B81034"/>
<path d="M17.8158 74.9006L17.7361 41.5015L0.516541 119.147L17.8158 74.9006Z" fill="white"/>
<path d="M33.3987 83.205L64.3779 67.8135L48.7882 59.6125L33.3987 83.205Z" fill="#B81034"/>
<path d="M17.7355 41.5011L0 14.9663L0.515952 119.146L17.7355 41.5011Z" fill="white"/>
<path d="M17.8144 74.9005L33.3973 83.205L48.7868 59.6125L17.8144 74.9005Z" fill="#B81034"/>
<path d="M17.8144 74.9006L17.8523 90.7939L32.285 98.5352L17.8144 74.9006Z" fill="white"/>
<path d="M68.1871 156L98.9357 140.16L81.2871 89.41L68.1871 156ZM35.5408 84.2184L66.5215 68.8133L64.3769 67.8137L35.5408 84.2184ZM37.5285 84.8961L68.5117 69.4792L66.5215 68.8133L37.5285 84.8961ZM39.355 85.2422L70.3418 69.8157L68.5117 69.4792L39.355 85.2422ZM41.0146 85.2609L72.0059 69.8268L70.3418 69.8157L41.0146 85.2609ZM17.735 41.5015L17.8147 74.9006L48.8586 26.3486L17.735 41.5015ZM33.3977 83.2051L35.5408 84.2184L64.3769 67.8137L33.3977 83.2051ZM42.5014 84.9564L73.4982 69.5168L72.0059 69.8268L42.5014 84.9564Z" fill="#B81034"/>
<path d="M32.2863 98.5354L48.0295 145.022L50.3595 104.966L32.2863 98.5354Z" fill="white"/>
<path d="M43.8094 84.3327L74.8127 68.8898L73.498 69.5168L43.8094 84.3327ZM35.5406 84.2184L37.5284 84.896L66.5213 68.8132L35.5406 84.2184Z" fill="#B81034"/>
<path d="M48.0292 145.022L68.1876 156L50.3591 104.966L48.0292 145.022Z" fill="white"/>
<path d="M50.3592 104.966L68.1877 156L81.2877 89.41L50.3592 104.966ZM37.5292 84.8961L39.3557 85.2422L68.5124 69.4792L37.5292 84.8961Z" fill="#B81034"/>
<path d="M17.8144 74.9006L32.285 98.5352L54.9003 104.491L17.8144 74.9006Z" fill="white"/>
<path d="M39.3556 85.2419L41.0151 85.2606L70.3423 69.8154L39.3556 85.2419Z" fill="#B81034"/>
<path d="M33.3973 83.2051L17.8144 74.9006L54.9003 104.491L33.3973 83.2051Z" fill="white"/>
<path d="M56.9087 103.725L87.8609 88.1444L89.6946 87.0402L56.9087 103.725ZM41.0151 85.2608L42.5018 84.9563L72.0064 69.8267L41.0151 85.2608ZM42.5018 84.9563L43.81 84.3327L73.4987 69.5167L42.5018 84.9563ZM58.7324 102.625L89.6946 87.0402L91.3394 85.6173L58.7324 102.625ZM0 14.9666L35.3479 33.4149L31.1933 0L0 14.9666Z" fill="#B81034"/>
<path d="M32.2863 98.5354L50.3595 104.966L54.9016 104.491L32.2863 98.5354Z" fill="white"/>
<path d="M35.3479 33.4149L66.5574 18.2171L31.1932 0L35.3479 33.4149Z" fill="#B81034"/>
<path d="M35.5418 84.2182L33.3987 83.2048L54.9017 104.491L35.5418 84.2182Z" fill="white"/>
<path d="M60.3661 101.203L91.3392 85.6175L92.7889 83.8894L60.3661 101.203Z" fill="#B81034"/>
<path d="M37.5284 84.8959L35.5406 84.2183L54.9005 104.491L37.5284 84.8959ZM39.3549 85.242L37.5284 84.8959L54.9005 104.491L39.3549 85.242Z" fill="white"/>
<path d="M61.8047 99.4745L92.7894 83.889L94.0379 81.8694L61.8047 99.4745Z" fill="#B81034"/>
<path d="M0 14.9663L17.7355 41.5011L33.1584 49.6084L0 14.9663ZM41.0151 85.2605L39.3555 85.2418L54.9012 104.49L41.0151 85.2605Z" fill="white"/>
<path d="M58.7328 102.624L56.9091 103.725L89.695 87.04L58.7328 102.624Z" fill="#B81034"/>
<path d="M50.3585 104.965L52.7154 104.909L54.9006 104.491L50.3585 104.965ZM42.5013 84.9563L41.0145 85.2608L54.9006 104.491L42.5013 84.9563Z" fill="white"/>
<path d="M63.0405 97.4525L94.0377 81.8696L95.0788 79.5723L63.0405 97.4525Z" fill="#B81034"/>
<path d="M43.8106 84.3328L42.5024 84.9564L54.9018 104.491L43.8106 84.3328Z" fill="white"/>
<path d="M60.3659 101.203L58.7319 102.625L91.3389 85.6174L60.3659 101.203Z" fill="#B81034"/>
<path d="M44.9343 83.394L43.8105 84.3325L54.9017 104.491L44.9343 83.394Z" fill="white"/>
<path d="M64.0683 95.1507L95.0786 79.5724L95.906 77.0112L64.0683 95.1507Z" fill="#B81034"/>
<path d="M0 14.9663L33.1584 49.6084L35.3165 50.8785L0 14.9663ZM45.8673 82.1448L44.9338 83.3939L54.9012 104.49L45.8673 82.1448Z" fill="white"/>
<path d="M61.8042 99.4749L60.3661 101.203L92.7889 83.8894L61.8042 99.4749Z" fill="#B81034"/>
<path d="M0 14.9663L35.3165 50.8785L37.3262 52.3353L0 14.9663Z" fill="white"/>
<path d="M64.8828 92.5826L95.9069 77.011L96.5144 74.2L64.8828 92.5826Z" fill="#B81034"/>
<path d="M54.9012 104.49L56.9086 103.725L58.7324 102.624L54.9012 104.49ZM0 14.9663L37.3262 52.3353L39.1797 53.9645L0 14.9663Z" fill="white"/>
<path d="M40.0378 36.1289L71.248 20.8992L66.5572 18.2173L40.0378 36.1289ZM63.0402 97.4528L61.8042 99.4749L94.0374 81.8698L63.0402 97.4528ZM65.4751 89.7631L96.5134 74.2003L96.8949 71.1534L65.4751 89.7631Z" fill="#B81034"/>
<path d="M54.9011 104.491L58.7323 102.625L61.8043 99.4749L54.9011 104.491Z" fill="white"/>
<path d="M64.0688 95.1507L63.0408 97.4527L95.0791 79.5724L64.0688 95.1507ZM65.8424 86.7053L96.8955 71.1533L97.0447 67.8848L65.8424 86.7053ZM44.3799 39.1825L75.5882 23.921L71.2486 20.8992L44.3799 39.1825Z" fill="#B81034"/>
<path d="M58.7319 102.625L60.3659 101.203L61.8039 99.4749L58.7319 102.625Z" fill="white"/>
<path d="M65.9762 83.4239L97.0443 67.8846L97.0456 67.7387L65.9762 83.4239ZM65.9768 83.2773L97.0456 67.7387L96.8592 62.6016L65.9768 83.2773ZM64.882 92.5827L64.0683 95.1506L95.906 77.0111L64.882 92.5827Z" fill="#B81034"/>
<path d="M40.038 36.1285L35.3479 33.4146L0 14.9663L40.038 36.1285Z" fill="white"/>
<path d="M48.3589 42.5534L79.5629 27.2604L75.5871 23.9211L48.3589 42.5534Z" fill="#B81034"/>
<path d="M54.9012 104.49L61.8043 99.4745L65.4752 89.7627L54.9012 104.49ZM60.4222 58.7431L0 14.9663L39.1797 53.9645L60.4222 58.7431Z" fill="white"/>
<path d="M35.3484 33.4151L40.0385 36.1289L66.5579 18.2173L35.3484 33.4151ZM65.4758 89.7631L64.8825 92.5829L96.5141 74.2003L65.4758 89.7631Z" fill="#B81034"/>
<path d="M45.8679 82.1451L54.9017 104.491L60.4227 58.7434L45.8679 82.1451Z" fill="white"/>
<path d="M65.7677 78.1184L96.8591 62.6017L96.2103 57.5679L65.7677 78.1184ZM51.9658 46.2182L83.1631 30.8941L79.5635 27.2603L51.9658 46.2182Z" fill="#B81034"/>
<path d="M48.3596 42.553L40.038 36.1285L0 14.9663L48.3596 42.553ZM46.6047 80.5893L45.8673 82.1448L60.4222 58.7431L46.6047 80.5893ZM61.8043 99.4745L63.0404 97.4524L64.0683 95.1504L61.8043 99.4745Z" fill="white"/>
<path d="M65.0979 73.0607L96.2101 57.5677L95.1084 52.6616L65.0979 73.0607ZM65.8417 86.705L65.475 89.7627L96.8948 71.153L65.8417 86.705Z" fill="#B81034"/>
<path d="M47.1402 78.732L46.6047 80.5896L60.4222 58.7434L47.1402 78.732Z" fill="white"/>
<path d="M55.1861 50.1541L86.3744 34.7995L83.163 30.8942L55.1861 50.1541ZM40.0378 36.1288L44.3793 39.1825L71.248 20.8992L40.0378 36.1288ZM63.9772 68.1297L95.1085 52.6619L93.5637 47.9079L63.9772 68.1297Z" fill="#B81034"/>
<path d="M60.4227 58.7434L47.4683 76.5766L47.1407 78.732L60.4227 58.7434Z" fill="white"/>
<path d="M58.0092 54.3369L89.1863 38.9525L86.3749 34.7993L58.0092 54.3369ZM62.4156 63.3489L93.5642 47.9077L91.5864 43.33L62.4156 63.3489Z" fill="#B81034"/>
<path d="M61.8047 99.4748L64.0686 95.1507L65.4756 89.7629L61.8047 99.4748Z" fill="white"/>
<path d="M60.4226 58.7436L91.5865 43.3303L89.1864 38.9529L60.4226 58.7436ZM65.9766 83.4243L65.8424 86.7056L97.0447 67.885L65.9766 83.4243Z" fill="#B81034"/>
<path d="M60.4222 58.7431L48.3596 42.553L0 14.9663L60.4222 58.7431ZM60.4222 58.7431L47.5817 74.1277L47.4677 76.5763L60.4222 58.7431Z" fill="white"/>
<path d="M65.9765 83.2775L65.9758 83.424L97.0453 67.7388L65.9765 83.2775Z" fill="#B81034"/>
<path d="M60.423 58.7434L47.5827 73.9819L47.5824 74.128L60.423 58.7434ZM60.423 58.7434L47.4739 71.458L47.5827 73.9819L60.423 58.7434ZM54.902 104.491L65.476 89.763L60.423 58.7434L54.902 104.491Z" fill="white"/>
<path d="M44.3799 39.1826L48.3601 42.5534L75.5882 23.9211L44.3799 39.1826Z" fill="#B81034"/>
<path d="M60.4218 58.7437L47.1408 68.975L47.4727 71.4583L60.4218 58.7437ZM64.0679 95.151L64.8816 92.5831L65.4749 89.7632L64.0679 95.151ZM60.4218 58.7437L39.1793 53.9651L40.869 55.7522L60.4218 58.7437Z" fill="white"/>
<path d="M65.7678 78.1183L65.9768 83.2773L96.8591 62.6016L65.7678 78.1183Z" fill="#B81034"/>
<path d="M60.4228 58.7432L46.594 66.5464L47.1418 68.9745L60.4228 58.7432ZM60.4228 58.7432L40.8699 55.7517L42.388 57.6822L60.4228 58.7432ZM60.4228 58.7432L45.8373 64.1884L46.594 66.5464L60.4228 58.7432ZM60.4228 58.7432L42.388 57.6822L43.727 59.7416L60.4228 58.7432ZM60.4228 58.7432L44.8792 61.9153L45.8373 64.1884L60.4228 58.7432ZM60.4228 58.7432L43.727 59.7416L44.8792 61.9153L60.4228 58.7432Z" fill="white"/>
<path d="M48.3589 42.5532L51.9652 46.2182L79.5629 27.2603L48.3589 42.5532ZM65.0974 73.0609L65.7671 78.1184L96.2097 57.5679L65.0974 73.0609ZM51.9652 46.2182L55.1855 50.154L83.1625 30.8941L51.9652 46.2182ZM63.9766 68.1296L65.0974 73.0609L95.108 52.6618L63.9766 68.1296Z" fill="#B81034"/>
<path d="M65.4752 89.7628L65.8419 86.7051L65.9761 83.4238L65.4752 89.7628Z" fill="white"/>
<path d="M55.1867 50.1539L58.0093 54.3369L86.3751 34.7993L55.1867 50.1539ZM62.4157 63.3489L63.9778 68.1295L93.5643 47.9077L62.4157 63.3489ZM58.0093 54.3369L60.4227 58.7433L89.1865 38.9525L58.0093 54.3369ZM60.4227 58.7433L62.4157 63.3489L91.5866 43.33L60.4227 58.7433Z" fill="#B81034"/>
<path d="M65.4751 89.7628L65.976 83.4239L65.7676 78.1183L65.4751 89.7628ZM48.3594 42.5531L44.3793 39.1823L40.0378 36.1287L48.3594 42.5531ZM65.976 83.4239L65.9767 83.2774L65.7676 78.1183L65.976 83.4239ZM65.4751 89.7628L65.7676 78.1183L60.422 58.7432L65.4751 89.7628ZM65.7676 78.1183L65.098 73.0608L63.9772 68.1295L65.7676 78.1183ZM55.1861 50.1539L51.9657 46.2181L48.3594 42.5531L55.1861 50.1539ZM65.7676 78.1183L63.9772 68.1295L60.422 58.7432L65.7676 78.1183ZM60.422 58.7432L55.1861 50.1539L48.3594 42.5531L60.422 58.7432ZM63.9772 68.1295L62.4151 63.3489L60.422 58.7432L63.9772 68.1295ZM60.422 58.7432L58.0086 54.3369L55.1861 50.1539L60.422 58.7432Z" fill="white"/>
<path d="M217.235 123.493L220.331 118.26L222.911 112.84L217.235 123.493ZM217.235 123.493L222.911 112.84L226.452 101.561L217.235 123.493ZM222.911 112.84L224.958 107.264L226.452 101.561L222.911 112.84ZM209.569 133.283L213.642 128.511L217.235 123.493L209.569 133.283Z" fill="white"/>
<path d="M205.248 112.779L169.83 95.0511L168.587 97.3464L205.248 112.779ZM206.247 110.439L170.821 92.725L169.83 95.0511L206.247 110.439ZM203.998 115.089L168.587 97.3464L167.104 99.5915L203.998 115.089ZM206.979 108.089L171.544 90.3875L170.821 92.725L206.979 108.089ZM202.51 117.35L167.104 99.5915L165.396 101.767L202.51 117.35ZM207.431 105.748L171.987 88.0579L171.544 90.3875L207.431 105.748ZM200.797 119.542L165.396 101.767L163.477 103.854L200.797 119.542ZM207.588 103.436L172.134 85.7554L171.987 88.0579L207.588 103.436Z" fill="#B81034"/>
<path d="M217.234 123.494L226.452 101.561L227.544 85.4434L217.234 123.494ZM200.049 141.968L209.568 133.283L217.234 123.494L200.049 141.968Z" fill="white"/>
<path d="M207.589 103.353L172.135 85.6733L172.135 85.7556L207.589 103.353ZM198.874 121.646L163.478 103.854L161.36 105.832L198.874 121.646Z" fill="#B81034"/>
<path d="M226.452 101.562L227.375 95.7609L227.707 89.8914L226.452 101.562Z" fill="white"/>
<path d="M207.492 101.516L172.029 83.8433L172.134 85.6732L207.492 101.516ZM196.753 123.642L161.359 105.832L159.057 107.683L196.753 123.642Z" fill="#B81034"/>
<path d="M200.049 141.968L205.032 137.779L209.568 133.283L200.049 141.968Z" fill="white"/>
<path d="M207.19 99.9265L171.719 82.2583L172.029 83.8429L207.19 99.9265Z" fill="#B81034"/>
<path d="M226.452 101.561L227.707 89.891L227.544 85.4434L226.452 101.561Z" fill="white"/>
<path d="M194.449 125.51L159.057 107.683L156.584 109.385L194.449 125.51ZM206.671 98.5818L171.193 80.9165L171.718 82.2586L206.671 98.5818Z" fill="#B81034"/>
<path d="M227.708 89.891L227.709 89.8086L227.545 85.4434L227.708 89.891Z" fill="white"/>
<path d="M220.847 71.5597L185.287 54.0659L182.688 52.8218L220.847 71.5597ZM205.929 97.4788L170.444 79.8145L171.193 80.9168L205.929 97.4788ZM191.976 127.231L156.585 109.386L153.955 110.921L191.976 127.231Z" fill="#B81034"/>
<path d="M200.797 119.542L217.235 123.494L227.544 85.4434L200.797 119.542Z" fill="white"/>
<path d="M204.953 96.614L169.46 78.9488L170.443 79.814L204.953 96.614ZM205.247 112.779L206.246 110.439L169.829 95.0508L205.247 112.779ZM203.997 115.089L205.247 112.779L168.586 97.3461L203.997 115.089ZM206.246 110.439L206.978 108.089L170.82 92.7247L206.246 110.439ZM202.509 117.35L203.997 115.089L167.103 99.5912L202.509 117.35ZM189.346 128.784L153.954 110.921L151.188 112.275L189.346 128.784ZM206.978 108.089L207.43 105.748L171.543 90.3872L206.978 108.089ZM200.796 119.542L202.509 117.35L165.395 101.767L200.796 119.542ZM218.26 70.3217L182.687 52.8212L179.651 52.0703L218.26 70.3217ZM203.735 95.9862L168.236 78.318L169.46 78.9488L203.735 95.9862ZM207.43 105.748L207.587 103.435L171.986 88.0576L207.43 105.748ZM198.872 121.646L200.796 119.542L163.476 103.854L198.872 121.646Z" fill="#B81034"/>
<path d="M227.544 85.4435L227.002 81.6172L226.071 78.3228L227.544 85.4435Z" fill="white"/>
<path d="M207.588 103.436L207.588 103.353L172.134 85.7556L207.588 103.436ZM186.582 130.157L151.189 112.276L148.578 113.308L186.582 130.157ZM207.588 103.353L207.492 101.517L172.134 85.6733L207.588 103.353ZM196.753 123.642L198.873 121.646L161.359 105.832L196.753 123.642Z" fill="#B81034"/>
<path d="M200.796 119.542L198.873 121.646L217.234 123.494L200.796 119.542Z" fill="white"/>
<path d="M207.493 101.516L207.191 99.9269L172.031 83.8433L207.493 101.516Z" fill="#B81034"/>
<path d="M183.205 152.079L194.638 145.82L200.051 141.968L183.205 152.079ZM198.874 121.646L196.754 123.642L217.236 123.494L198.874 121.646Z" fill="white"/>
<path d="M194.449 125.51L196.753 123.642L159.057 107.682L194.449 125.51Z" fill="#B81034"/>
<path d="M227.545 85.4431L226.072 78.3223L223.004 73.3005L227.545 85.4431Z" fill="white"/>
<path d="M215.236 69.5815L179.65 52.0704L176.165 51.8059L215.236 69.5815ZM183.973 131.205L148.577 113.308L146.133 114.021L183.973 131.205Z" fill="#B81034"/>
<path d="M196.752 123.641L194.449 125.51L217.234 123.493L196.752 123.641Z" fill="white"/>
<path d="M207.19 99.9265L206.671 98.5815L171.719 82.2583L207.19 99.9265Z" fill="#B81034"/>
<path d="M205.249 112.779L203.999 115.089L227.545 85.4434L205.249 112.779ZM206.247 110.439L205.249 112.779L227.545 85.4434L206.247 110.439ZM203.999 115.089L202.51 117.35L227.545 85.4434L203.999 115.089ZM206.979 108.089L206.247 110.439L227.545 85.4434L206.979 108.089Z" fill="white"/>
<path d="M191.975 127.231L194.449 125.51L156.584 109.386L191.975 127.231Z" fill="#B81034"/>
<path d="M164.577 155.869L200.051 141.968L217.236 123.494L164.577 155.869ZM202.51 117.35L200.798 119.542L227.545 85.4434L202.51 117.35ZM207.431 105.748L206.979 108.089L227.545 85.4434L207.431 105.748ZM194.45 125.51L191.977 127.231L217.236 123.494L194.45 125.51Z" fill="white"/>
<path d="M206.673 98.5818L205.93 97.4785L171.194 80.9165L206.673 98.5818Z" fill="#B81034"/>
<path d="M207.589 103.436L207.431 105.748L227.545 85.4434L207.589 103.436ZM183.205 152.079L188.81 149.302L194.638 145.82L183.205 152.079ZM207.589 103.353L207.589 103.436L227.545 85.4434L207.589 103.353Z" fill="white"/>
<path d="M181.534 131.933L146.134 114.021L143.87 114.419L181.534 131.933Z" fill="#B81034"/>
<path d="M191.976 127.231L189.347 128.784L217.235 123.493L191.976 127.231Z" fill="white"/>
<path d="M218.262 70.3223L220.847 71.5597L182.689 52.8218L218.262 70.3223Z" fill="#B81034"/>
<path d="M207.493 101.516L207.589 103.353L227.545 85.4431L207.493 101.516ZM226.072 78.3223L224.742 75.5526L223.004 73.3005L226.072 78.3223Z" fill="white"/>
<path d="M189.347 128.785L191.976 127.231L153.955 110.921L189.347 128.785ZM205.929 97.4787L204.954 96.6145L170.444 79.8145L205.929 97.4787Z" fill="#B81034"/>
<path d="M207.189 99.927L207.492 101.516L227.544 85.4434L207.189 99.927ZM189.346 128.785L186.582 130.157L217.234 123.494L189.346 128.785Z" fill="white"/>
<path d="M211.763 69.3316L176.167 51.8059L172.221 52.0212L211.763 69.3316Z" fill="#B81034"/>
<path d="M206.673 98.5819L207.191 99.927L227.545 85.4434L206.673 98.5819Z" fill="white"/>
<path d="M179.273 132.343L143.869 114.419L141.798 114.506L179.273 132.343ZM204.953 96.614L203.735 95.9861L169.46 78.9487L204.953 96.614ZM186.582 130.157L189.346 128.784L151.188 112.275L186.582 130.157Z" fill="#B81034"/>
<path d="M205.928 97.4786L206.671 98.5819L227.544 85.4434L205.928 97.4786ZM186.582 130.157L183.973 131.206L217.234 123.494L186.582 130.157ZM204.953 96.6144L205.928 97.4786L227.544 85.4434L204.953 96.6144Z" fill="white"/>
<path d="M215.236 69.5814L218.261 70.3217L179.651 52.0703L215.236 69.5814ZM177.208 132.44L141.799 114.506L139.935 114.285L177.208 132.44Z" fill="#B81034"/>
<path d="M227.543 85.443L223.003 73.3005L211.761 69.3315L227.543 85.443ZM183.973 131.205L181.532 131.933L217.234 123.493L183.973 131.205Z" fill="white"/>
<path d="M183.973 131.206L186.582 130.158L148.578 113.308L183.973 131.206ZM207.826 69.566L172.22 52.0217L167.803 52.7104L207.826 69.566Z" fill="#B81034"/>
<path d="M164.577 155.868L183.206 152.078L200.051 141.968L164.577 155.868Z" fill="white"/>
<path d="M175.35 132.227L139.935 114.285L138.29 113.76L175.35 132.227Z" fill="#B81034"/>
<path d="M223.004 73.3007L220.848 71.5594L218.262 70.322L223.004 73.3007ZM181.534 131.933L164.577 155.869L217.236 123.493L181.534 131.933Z" fill="white"/>
<path d="M181.532 131.933L183.973 131.205L146.133 114.021L181.532 131.933ZM211.761 69.3316L215.236 69.5815L176.165 51.8059L211.761 69.3316Z" fill="#B81034"/>
<path d="M173.096 155.419L177.962 154.115L183.206 152.079L173.096 155.419Z" fill="white"/>
<path d="M179.274 132.344L181.534 131.934L143.87 114.42L179.274 132.344ZM203.42 70.2774L167.804 52.7104L162.905 53.8662L203.42 70.2774Z" fill="#B81034"/>
<path d="M223.004 73.3005L218.262 70.3218L211.763 69.3315L223.004 73.3005Z" fill="white"/>
<path d="M177.208 132.441L179.273 132.344L141.798 114.507L177.208 132.441ZM207.826 69.566L211.761 69.3321L172.219 52.0217L207.826 69.566Z" fill="#B81034"/>
<path d="M164.577 155.869L173.096 155.419L183.206 152.079L164.577 155.869Z" fill="white"/>
<path d="M175.35 132.227L177.208 132.44L139.935 114.285L175.35 132.227Z" fill="#B81034"/>
<path d="M218.262 70.3218L215.237 69.5815L211.763 69.3315L218.262 70.3218Z" fill="white"/>
<path d="M173.713 131.707L175.351 132.227L138.291 113.76L173.713 131.707ZM155.113 151.291L119.726 133.181L122.431 135.398L155.113 151.291ZM203.42 70.2772L207.827 69.5659L167.804 52.7103L203.42 70.2772ZM206.913 48.7266L171.21 31.2622L171.347 32.1928L206.913 48.7266ZM198.53 71.4597L162.905 53.866L152.56 56.7061L198.53 71.4597ZM206.517 46.8372L170.803 29.3787L171.21 31.2622L206.517 46.8372Z" fill="#B81034"/>
<path d="M227.545 85.443L211.763 69.3315L185.463 75.0415L227.545 85.443ZM164.577 155.868L168.628 156L173.096 155.418L164.577 155.868ZM204.954 96.6141L227.545 85.443L177.17 75.5264L204.954 96.6141Z" fill="white"/>
<path d="M205.894 45.1856L170.171 27.731L170.803 29.3785L205.894 45.1856Z" fill="#B81034"/>
<path d="M181.534 131.934L179.275 132.344L164.577 155.869L181.534 131.934Z" fill="white"/>
<path d="M152.918 148.404L117.513 130.295L119.726 133.181L152.918 148.404ZM205.05 43.7801L169.319 26.3274L170.17 27.7306L205.05 43.7801ZM198.529 71.4592L203.419 70.2767L162.904 53.8655L198.529 71.4592Z" fill="#B81034"/>
<path d="M179.275 132.343L177.209 132.44L164.577 155.868L179.275 132.343ZM211.763 69.3315L207.827 69.5655L203.42 70.2768L211.763 69.3315Z" fill="white"/>
<path d="M169.218 123.846L133.747 105.91L113.936 116.439L169.218 123.846Z" fill="#B81034"/>
<path d="M226.03 38.5494L225.488 33.9251L224.454 29.8052L226.03 38.5494ZM177.209 132.44L175.351 132.227L164.577 155.869L177.209 132.44Z" fill="white"/>
<path d="M203.996 42.6295L168.257 25.1768L169.32 26.3274L203.996 42.6295ZM157.799 153.504L155.112 151.291L122.43 135.398L157.799 153.504Z" fill="#B81034"/>
<path d="M207.046 49.6601L226.092 39.5999L226.03 38.5491L207.046 49.6601ZM175.351 132.227L173.713 131.707L164.577 155.868L175.351 132.227Z" fill="white"/>
<path d="M151.237 144.853L115.811 126.75L117.513 130.295L151.237 144.853ZM188.201 74.3578L152.56 56.7061L149.818 57.3751L188.201 74.3578ZM202.736 41.7422L166.989 24.2875L168.257 25.1772L202.736 41.7422ZM215.551 18.9564L179.737 1.65112L176.343 0.486084L215.551 18.9564ZM207.045 49.6605L206.913 48.7266L171.346 32.1928L207.045 49.6605Z" fill="#B81034"/>
<path d="M173.713 131.707L172.309 130.884L164.577 155.869L173.713 131.707Z" fill="white"/>
<path d="M206.912 48.7259L206.515 46.8365L171.208 31.2615L206.912 48.7259Z" fill="#B81034"/>
<path d="M207.046 49.6605L226.03 38.5494L224.454 29.8052L207.046 49.6605ZM203.736 95.9867L204.954 96.6145L174.527 74.3968L203.736 95.9867ZM172.309 130.884L171.151 129.762L164.577 155.869L172.309 130.884Z" fill="white"/>
<path d="M185.464 75.0418L149.818 57.375L147.348 57.8226L185.464 75.0418Z" fill="#B81034"/>
<path d="M157.8 153.504L160.961 155.033L164.576 155.868L157.8 153.504ZM227.545 85.4429L185.463 75.0414L182.997 75.5019L227.545 85.4429ZM174.527 74.3962L202.267 95.5921L203.736 95.9861L174.527 74.3962Z" fill="white"/>
<path d="M206.515 46.8372L205.893 45.1858L170.802 29.3787L206.515 46.8372ZM150.086 140.649L114.638 122.558L115.81 126.75L150.086 140.649Z" fill="#B81034"/>
<path d="M171.151 129.762L170.253 128.344L164.577 155.868L171.151 129.762Z" fill="white"/>
<path d="M155.113 151.291L152.919 148.404L119.726 133.181L155.113 151.291Z" fill="#B81034"/>
<path d="M211.762 69.3315L203.419 70.2768L188.2 74.3574L211.762 69.3315ZM227.544 85.443L182.997 75.502L180.797 75.7374L227.544 85.443Z" fill="white"/>
<path d="M188.2 74.3577L198.529 71.4595L152.56 56.7059L188.2 74.3577ZM182.997 75.5023L147.347 57.8225L145.142 58.047L182.997 75.5023ZM212.172 17.8014L176.343 0.485928L172.505 0L212.172 17.8014ZM205.893 45.1856L205.051 43.7805L170.171 27.731L205.893 45.1856Z" fill="#B81034"/>
<path d="M224.453 29.8048L222.934 26.2183L220.939 23.1948L224.453 29.8048ZM227.544 85.443L180.797 75.7374L178.857 75.746L227.544 85.443Z" fill="white"/>
<path d="M205.051 43.7801L203.996 42.6295L169.32 26.3274L205.051 43.7801ZM149.488 135.802L114.017 117.727L114.639 122.557L149.488 135.802Z" fill="#B81034"/>
<path d="M152.918 148.404L157.799 153.504L164.576 155.868L152.918 148.404Z" fill="white"/>
<path d="M180.797 75.7374L145.142 58.0468L143.196 58.0466L180.797 75.7374Z" fill="#B81034"/>
<path d="M206.913 48.7266L207.045 49.6605L224.453 29.8052L206.913 48.7266ZM227.544 85.4434L178.857 75.7464L177.169 75.5268L227.544 85.4434Z" fill="white"/>
<path d="M152.918 148.404L151.236 144.853L117.513 130.295L152.918 148.404Z" fill="#B81034"/>
<path d="M206.515 46.8372L206.912 48.7266L224.453 29.8052L206.515 46.8372ZM167.419 101.93L190.831 97.0391L193.694 96.3025L167.419 101.93Z" fill="white"/>
<path d="M149.413 134.508L113.936 116.438L114.017 117.727L149.413 134.508ZM203.996 42.6295L202.736 41.7418L168.257 25.1768L203.996 42.6295Z" fill="#B81034"/>
<path d="M203.42 70.2776L198.529 71.46L188.2 74.3582L203.42 70.2776Z" fill="white"/>
<path d="M178.856 75.7465L143.196 58.0471L141.503 57.8208L178.856 75.7465Z" fill="#B81034"/>
<path d="M224.453 29.8053L220.939 23.1954L215.55 18.9565L224.453 29.8053Z" fill="white"/>
<path d="M208.347 17.3303L172.505 0L168.231 0.224007L208.347 17.3303Z" fill="#B81034"/>
<path d="M175.723 101.138L180.566 99.9558L190.831 97.0393L175.723 101.138Z" fill="white"/>
<path d="M185.462 75.0418L188.2 74.3578L149.817 57.375L185.462 75.0418Z" fill="#B81034"/>
<path d="M211.761 69.3315L188.199 74.3574L185.462 75.0415L211.761 69.3315ZM170.252 128.344L149.412 134.508L164.575 155.868L170.252 128.344Z" fill="white"/>
<path d="M177.169 75.5268L141.503 57.8207L140.056 57.3666L177.169 75.5268ZM212.172 17.8015L215.551 18.9564L176.343 0.486084L212.172 17.8015Z" fill="#B81034"/>
<path d="M151.415 84.7102L200.538 95.429L202.268 95.592L151.415 84.7102ZM152.919 148.403L155.113 151.291L157.8 153.504L152.919 148.403Z" fill="white"/>
<path d="M151.237 144.853L150.087 140.649L115.811 126.75L151.237 144.853ZM182.997 75.5025L185.463 75.042L147.347 57.8228L182.997 75.5025ZM149.413 134.509L169.218 123.846L113.936 116.439L149.413 134.509Z" fill="#B81034"/>
<path d="M151.414 84.711L198.537 95.4955L200.536 95.4299L151.414 84.711ZM220.939 23.1954L218.475 20.7646L215.55 18.9565L220.939 23.1954ZM149.412 134.509L152.917 148.404L164.575 155.869L149.412 134.509Z" fill="white"/>
<path d="M204.083 17.574L168.23 0.223877L163.528 1.18886L204.083 17.574Z" fill="#B81034"/>
<path d="M151.414 84.7102L196.26 95.7865L198.537 95.4947L151.414 84.7102ZM167.418 101.93L175.723 101.137L190.831 97.0385L167.418 101.93ZM170.252 128.344L169.626 126.635L149.412 134.508L170.252 128.344Z" fill="white"/>
<path d="M180.797 75.7373L182.996 75.5019L145.142 58.0466L180.797 75.7373ZM150.086 140.648L149.487 135.802L114.638 122.557L150.086 140.648Z" fill="#B81034"/>
<path d="M204.953 96.614L177.169 75.5263L175.727 75.0769L204.953 96.614ZM169.626 126.635L169.287 124.639L149.412 134.508L169.626 126.635Z" fill="white"/>
<path d="M208.346 17.3303L212.171 17.8014L172.505 0L208.346 17.3303Z" fill="#B81034"/>
<path d="M151.414 84.7106L193.694 96.3022L196.26 95.7868L151.414 84.7106ZM169.287 124.639L169.217 123.846L149.412 134.508L169.287 124.639ZM206.515 46.8369L224.452 29.8049L199.389 18.5637L206.515 46.8369ZM204.953 96.6142L175.727 75.0771L174.526 74.3965L204.953 96.6142Z" fill="white"/>
<path d="M178.857 75.746L180.797 75.7374L143.197 58.0466L178.857 75.746ZM158.296 99.2436L122.685 81.3563L125.306 82.7693L158.296 99.2436ZM149.488 135.802L149.413 134.508L114.017 117.727L149.488 135.802Z" fill="#B81034"/>
<path d="M224.453 29.8049L215.55 18.9561L199.389 18.5637L224.453 29.8049Z" fill="white"/>
<path d="M199.389 18.5638L163.527 1.18896L158.404 2.92613L199.389 18.5638ZM177.168 75.5266L178.856 75.7463L141.503 57.8205L177.168 75.5266Z" fill="#B81034"/>
<path d="M150.087 140.648L151.236 144.853L152.918 148.404L150.087 140.648Z" fill="white"/>
<path d="M204.083 17.574L208.347 17.3302L168.231 0.223877L204.083 17.574Z" fill="#B81034"/>
<path d="M205.893 45.1855L206.515 46.8369L199.389 18.5637L205.893 45.1855ZM167.419 101.93L171.343 101.795L175.723 101.138L167.419 101.93Z" fill="white"/>
<path d="M156.11 97.3306L120.484 79.4411L122.684 81.356L156.11 97.3306ZM175.728 75.0767L177.169 75.5261L140.056 57.366L175.728 75.0767Z" fill="#B81034"/>
<path d="M205.05 43.7802L205.892 45.1854L199.389 18.5636L205.05 43.7802ZM149.412 134.508L150.086 140.648L152.917 148.404L149.412 134.508ZM215.55 18.9559L212.171 17.8011L208.346 17.3301L215.55 18.9559ZM203.995 42.6295L205.05 43.7802L199.389 18.5636L203.995 42.6295Z" fill="white"/>
<path d="M194.273 20.3305L158.405 2.92578L152.87 5.46647L194.273 20.3305Z" fill="#B81034"/>
<path d="M202.735 41.7419L203.996 42.6297L199.389 18.5637L202.735 41.7419Z" fill="white"/>
<path d="M154.339 94.9173L118.698 77.0295L120.485 79.442L154.339 94.9173Z" fill="#B81034"/>
<path d="M174.528 74.3962L151.415 84.7103L202.268 95.5921L174.528 74.3962Z" fill="white"/>
<path d="M199.39 18.5638L204.084 17.5741L163.529 1.18896L199.39 18.5638ZM160.904 100.651L158.297 99.2438L125.307 82.7695L160.904 100.651Z" fill="#B81034"/>
<path d="M201.276 41.1254L202.735 41.7418L199.389 18.5636L201.276 41.1254ZM149.412 134.508L149.487 135.802L150.086 140.648L149.412 134.508ZM151.414 84.7104L167.418 101.93L193.694 96.3021L151.414 84.7104ZM215.55 18.9559L208.346 17.3301L199.389 18.5636L215.55 18.9559ZM199.625 40.7889L201.276 41.1254L199.389 18.5636L199.625 40.7889Z" fill="white"/>
<path d="M152.97 92.0061L117.312 74.124L118.696 77.0296L152.97 92.0061Z" fill="#B81034"/>
<path d="M197.791 40.7409L199.626 40.789L199.39 18.5637L197.791 40.7409Z" fill="white"/>
<path d="M188.742 22.9065L152.87 5.4668L147.551 8.51197L188.742 22.9065ZM158.297 99.2438L156.111 97.3311L122.686 81.3565L158.297 99.2438Z" fill="#B81034"/>
<path d="M160.903 100.651L163.941 101.547L167.418 101.93L160.903 100.651ZM195.777 40.9896L197.79 40.7409L199.389 18.5637L195.777 40.9896Z" fill="white"/>
<path d="M194.273 20.3305L199.39 18.5635L158.405 2.92578L194.273 20.3305ZM152 88.6017L116.324 70.729L117.313 74.1232L152 88.6017Z" fill="#B81034"/>
<path d="M193.594 41.5438L195.778 40.9895L199.39 18.5636L193.594 41.5438ZM208.347 17.3301L204.084 17.5739L199.39 18.5636L208.347 17.3301Z" fill="white"/>
<path d="M183.421 25.9881L147.549 8.51221L142.512 12.0116L183.421 25.9881ZM156.11 97.3313L154.338 94.9171L120.484 79.4418L156.11 97.3313Z" fill="#B81034"/>
<path d="M191.246 42.4123L193.593 41.5439L199.389 18.5637L191.246 42.4123ZM156.11 97.331L160.903 100.651L167.419 101.93L156.11 97.331Z" fill="white"/>
<path d="M151.415 84.7108L115.72 66.8513L116.324 70.7295L151.415 84.7108Z" fill="#B81034"/>
<path d="M188.741 43.6035L191.246 42.4123L199.389 18.5637L188.741 43.6035Z" fill="white"/>
<path d="M188.741 22.9065L194.273 20.3308L152.87 5.4668L188.741 22.9065Z" fill="#B81034"/>
<path d="M186.282 45.0319L188.74 43.6035L199.389 18.5637L186.282 45.0319Z" fill="white"/>
<path d="M154.338 94.9167L152.971 92.0055L118.697 77.029L154.338 94.9167ZM178.383 29.5239L142.513 12.0112L137.795 15.9224L178.383 29.5239ZM151.206 80.3362L115.491 62.4937L115.719 66.851L151.206 80.3362Z" fill="#B81034"/>
<path d="M183.977 46.6086L186.284 45.0319L199.391 18.5637L183.977 46.6086Z" fill="white"/>
<path d="M151.207 80.2516L115.491 62.4094L115.492 62.4934L151.207 80.2516Z" fill="#B81034"/>
<path d="M156.11 97.331L158.296 99.2437L160.903 100.651L156.11 97.331ZM181.833 48.3193L183.976 46.6086L199.389 18.5637L181.833 48.3193ZM179.865 50.1499L181.833 48.3193L199.389 18.5637L179.865 50.1499Z" fill="white"/>
<path d="M173.66 33.4727L137.795 15.9228L133.432 20.2025L173.66 33.4727ZM152.972 92.0059L152 88.6022L117.314 74.1238L152.972 92.0059ZM151.504 74.595L115.764 56.7773L115.491 62.4102L151.504 74.595ZM183.422 25.9881L188.742 22.9067L147.55 8.51221L183.422 25.9881Z" fill="#B81034"/>
<path d="M178.085 52.0862L179.866 50.1499L199.391 18.5637L178.085 52.0862ZM151.415 84.7106L156.111 97.331L167.42 101.93L151.415 84.7106ZM174.528 74.3965L173.559 73.4833L151.415 84.7106L174.528 74.3965ZM199.391 18.5637L194.274 20.3307L188.742 22.9064L199.391 18.5637Z" fill="white"/>
<path d="M169.288 37.7892L133.431 20.2021L129.457 24.8069L169.288 37.7892Z" fill="#B81034"/>
<path d="M173.559 73.4836L172.817 72.3364L151.415 84.7109L173.559 73.4836Z" fill="white"/>
<path d="M152.428 68.9462L116.665 51.1558L115.763 56.7768L152.428 68.9462ZM151.998 88.6017L151.413 84.7104L116.322 70.7291L151.998 88.6017Z" fill="#B81034"/>
<path d="M172.817 72.3366L172.294 70.9541L151.415 84.7112L172.817 72.3366Z" fill="white"/>
<path d="M165.304 42.431L129.457 24.8071L125.908 29.6929L165.304 42.431Z" fill="#B81034"/>
<path d="M172.294 70.9539L171.984 69.3347L151.415 84.711L172.294 70.9539Z" fill="white"/>
<path d="M153.95 63.3524L118.165 45.5918L116.666 51.1558L153.95 63.3524ZM178.382 29.5239L183.421 25.9876L142.513 12.0112L178.382 29.5239Z" fill="#B81034"/>
<path d="M178.085 52.0862L199.391 18.5637L151.415 84.7106L178.085 52.0862ZM171.984 69.3343L171.879 67.4772L151.415 84.7106L171.984 69.3343Z" fill="white"/>
<path d="M161.743 47.3526L125.908 29.6926L122.82 34.8152L161.743 47.3526ZM156.031 57.8586L120.228 40.1298L118.165 45.5917L156.031 57.8586Z" fill="#B81034"/>
<path d="M152.972 92.0058L154.339 94.917L156.111 97.3312L152.972 92.0058ZM171.879 67.4774L171.879 67.3933L151.415 84.7108L171.879 67.4774Z" fill="white"/>
<path d="M158.642 52.5103L122.821 34.8152L120.229 40.1298L158.642 52.5103Z" fill="#B81034"/>
<path d="M171.879 67.393L172.013 65.1196L151.415 84.7105L171.879 67.393Z" fill="white"/>
<path d="M151.415 84.7108L151.207 80.3365L115.72 66.8513L151.415 84.7108Z" fill="#B81034"/>
<path d="M199.391 18.5637L188.742 22.9064L178.384 29.524L199.391 18.5637ZM172.013 65.1197L172.417 62.851L151.415 84.7106L172.013 65.1197ZM176.505 54.114L178.085 52.0862L151.415 84.7106L176.505 54.114ZM172.417 62.851L173.08 60.6017L151.415 84.7106L172.417 62.851ZM175.136 56.2187L176.505 54.114L151.415 84.7106L175.136 56.2187ZM173.08 60.6017L173.99 58.3861L151.415 84.7106L173.08 60.6017ZM173.99 58.3861L175.136 56.2187L151.415 84.7106L173.99 58.3861Z" fill="white"/>
<path d="M173.66 33.4722L178.383 29.5239L137.795 15.9224L173.66 33.4722ZM151.206 80.3362L151.206 80.2519L115.491 62.4937L151.206 80.3362Z" fill="#B81034"/>
<path d="M151.415 84.7102L152.972 92.0052L156.111 97.3306L151.415 84.7102Z" fill="white"/>
<path d="M151.207 80.252L151.504 74.5947L115.491 62.4098L151.207 80.252ZM169.289 37.7892L173.66 33.4723L133.432 20.2021L169.289 37.7892Z" fill="#B81034"/>
<path d="M188.741 22.9062L183.422 25.9876L178.383 29.5239L188.741 22.9062Z" fill="white"/>
<path d="M151.503 74.5953L152.428 68.9469L115.763 56.7776L151.503 74.5953Z" fill="#B81034"/>
<path d="M151.415 84.7106L152 88.6019L152.972 92.0055L151.415 84.7106ZM199.391 18.5637L161.745 47.3528L151.415 84.7106L199.391 18.5637ZM199.391 18.5637L178.384 29.524L161.745 47.3528L199.391 18.5637Z" fill="white"/>
<path d="M165.305 42.431L169.288 37.7894L129.457 24.8071L165.305 42.431ZM152.429 68.9465L153.95 63.3527L116.666 51.1561L152.429 68.9465ZM161.744 47.353L165.305 42.431L125.909 29.6929L161.744 47.353ZM153.95 63.3527L156.032 57.8589L118.165 45.5921L153.95 63.3527ZM158.641 52.5106L161.744 47.353L122.821 34.8155L158.641 52.5106ZM156.032 57.8589L158.641 52.5106L120.228 40.1302L156.032 57.8589Z" fill="#B81034"/>
<path d="M151.207 80.2527L151.207 80.3369L151.415 84.7112L151.207 80.2527ZM178.383 29.5247L173.66 33.473L169.289 37.7899L178.383 29.5247ZM152.43 68.947L151.207 80.2527L151.415 84.7112L152.43 68.947ZM152.43 68.947L151.504 74.5953L151.207 80.2527L152.43 68.947ZM178.383 29.5247L169.289 37.7899L161.745 47.3534L178.383 29.5247ZM161.745 47.3534L152.43 68.947L151.415 84.7112L161.745 47.3534ZM169.289 37.7899L165.305 42.4315L161.745 47.3534L169.289 37.7899ZM156.032 57.8593L153.95 63.3531L152.43 68.947L156.032 57.8593ZM161.745 47.3534L156.032 57.8593L152.43 68.947L161.745 47.3534ZM161.745 47.3534L158.642 52.511L156.032 57.8593L161.745 47.3534Z" fill="white"/>
</svg>
