<svg width="40" height="40" viewBox="0 0 40 40" fill="none" xmlns="http://www.w3.org/2000/svg">
<rect y="4.5" width="17" height="17" rx="3.9604" fill="#B81034"/>
<path d="M37.1045 30.3821C37.1232 30.3243 37.136 30.2633 37.136 30.1991V9.02327C37.136 8.95869 37.1232 8.89731 37.1041 8.83912C37.1013 8.83115 37.0997 8.82317 37.0965 8.8152C37.071 8.74704 37.0336 8.68566 36.9865 8.63185C36.9833 8.62826 36.9829 8.62388 36.9798 8.62029C36.9778 8.6183 36.9754 8.6175 36.9734 8.61551C36.9232 8.5621 36.8638 8.51905 36.7972 8.48677C36.792 8.48437 36.788 8.48118 36.7828 8.47879C36.7199 8.45049 36.6513 8.43455 36.5792 8.42977C36.572 8.42937 36.5652 8.42777 36.558 8.42777C36.5513 8.42738 36.5453 8.42578 36.5385 8.42578H3.37392C3.36714 8.42578 3.36076 8.42738 3.35399 8.42777C3.34761 8.42817 3.34123 8.42937 3.33485 8.42977C3.26191 8.43455 3.19216 8.45089 3.12839 8.47959C3.1244 8.48119 3.12121 8.48398 3.11723 8.48557C3.04947 8.51786 2.98928 8.5617 2.93866 8.61591C2.93666 8.6179 2.93427 8.6183 2.93228 8.62029C2.92909 8.62348 2.92869 8.62787 2.9255 8.63145C2.87847 8.68526 2.8406 8.74704 2.8151 8.8152C2.81191 8.82317 2.81031 8.83115 2.80752 8.83952C2.78839 8.89771 2.77563 8.95909 2.77563 9.02366V30.1999C2.77563 30.2653 2.78879 30.3274 2.80832 30.3864C2.81111 30.3944 2.8127 30.402 2.81549 30.41C2.8414 30.4785 2.87967 30.5403 2.9271 30.5941C2.92989 30.5973 2.93069 30.6013 2.93348 30.6045C2.93587 30.6073 2.93906 30.6089 2.94185 30.6116C2.96138 30.632 2.9829 30.6499 3.00522 30.6674C3.01519 30.675 3.02396 30.6842 3.03432 30.6914C3.06063 30.7097 3.08893 30.7244 3.11802 30.738C3.1252 30.7412 3.13157 30.7464 3.13875 30.7492C3.21089 30.7798 3.29021 30.7974 3.37352 30.7974H36.5377C36.621 30.7974 36.7003 30.7802 36.7725 30.7492C36.7836 30.7444 36.794 30.7372 36.8048 30.7316C36.8295 30.7193 36.8542 30.7065 36.8769 30.691C36.8889 30.6826 36.8996 30.6718 36.9112 30.6627C36.9315 30.6463 36.9515 30.63 36.969 30.6112C36.9722 30.6081 36.9758 30.6057 36.979 30.6025C36.9821 30.5989 36.9829 30.5941 36.9861 30.5905C37.0328 30.5371 37.0702 30.4757 37.0957 30.408C37.0997 30.3992 37.1017 30.3908 37.1045 30.3821ZM3.9718 10.3793L14.035 19.5711L3.9718 28.8363V10.3793ZM24.5972 19.1207C24.5557 19.1478 24.5119 19.1705 24.4772 19.2088C24.4641 19.2232 24.4597 19.2419 24.4481 19.257L19.956 23.3601L4.91486 9.62115H34.9972L24.5972 19.1207ZM14.9214 20.3807L19.5526 24.6109C19.667 24.7153 19.8113 24.7675 19.956 24.7675C20.1007 24.7675 20.245 24.7153 20.359 24.6109L24.9328 20.4333L34.9944 29.6016H4.90609L14.9214 20.3807ZM25.8197 19.6233L35.9402 10.3793V28.8459L25.8197 19.6233Z" fill="#333333"/>
</svg>
