<svg width="40" height="40" viewBox="0 0 40 40" fill="none" xmlns="http://www.w3.org/2000/svg">
<rect x="15.0496" y="13.5989" width="17.9504" height="17.9504" rx="4.49651" fill="#B81034"/>
<path d="M26.25 5H13.75C12.3693 5 11.25 6.11929 11.25 7.5V32.5C11.25 33.8807 12.3693 35 13.75 35H26.25C27.6307 35 28.75 33.8807 28.75 32.5V7.5C28.75 6.11929 27.6307 5 26.25 5Z" stroke="#333333" stroke-width="0.876736"/>
<path d="M17.5 7.5H22.5" stroke="#333333" stroke-width="0.876736"/>
<path d="M18.75 32.5H21.25" stroke="#333333" stroke-width="0.876736"/>
<path d="M20 21.6563C21.3738 21.6563 22.4875 20.1732 22.4875 18.3438C22.4875 16.5143 21.3738 15.0312 20 15.0312C18.6261 15.0312 17.5125 16.5143 17.5125 18.3438C17.5125 20.1732 18.6261 21.6563 20 21.6563Z" stroke="#333333" stroke-width="0.876736"/>
<path d="M17.9187 20.3C17.9187 20.3 15.8312 20.8563 15.4187 21.9563C15.0593 22.9281 14.9268 23.9692 15.0312 25H24.9999C25.0956 23.9786 24.9588 22.9487 24.5999 21.9875C24.1999 20.8875 22.0999 20.3313 22.0999 20.3313" stroke="#333333" stroke-width="0.876736"/>
</svg>
