<svg width="27" height="27" viewBox="0 0 27 27" fill="none" xmlns="http://www.w3.org/2000/svg">
<path d="M8.9874 3.93693C8.84021 4.08762 8.75781 4.28991 8.75781 4.50056C8.75781 4.7112 8.84021 4.91349 8.9874 5.06418L17.2106 13.5L8.9874 21.9341C8.84021 22.0848 8.75781 22.2871 8.75781 22.4977C8.75781 22.7084 8.84021 22.9107 8.9874 23.0614C9.05895 23.1348 9.14448 23.1933 9.23897 23.2331C9.33345 23.273 9.43497 23.2936 9.53753 23.2936C9.64008 23.2936 9.7416 23.273 9.83608 23.2331C9.93057 23.1933 10.0161 23.1348 10.0877 23.0614L18.8323 14.0889C18.9859 13.9314 19.0718 13.72 19.0718 13.5C19.0718 13.28 18.9859 13.0686 18.8323 12.9111L10.0877 3.93862C10.0161 3.86514 9.93057 3.80674 9.83608 3.76686C9.7416 3.72698 9.64008 3.70644 9.53753 3.70644C9.43497 3.70644 9.33345 3.72698 9.23897 3.76686C9.14448 3.80674 9.05895 3.86514 8.9874 3.93862V3.93693Z" fill="#B81034"/>
</svg>
