<svg width="65" height="65" viewBox="0 0 65 65" fill="none" xmlns="http://www.w3.org/2000/svg">
<circle cx="32.5" cy="32.5001" r="32.5" fill="#B81034"/>
<path d="M19 31.5001C18.1716 31.5001 17.5 32.1717 17.5 33.0001C17.5 33.8286 18.1716 34.5001 19 34.5001L19 31.5001ZM48.0607 34.0608C48.6465 33.475 48.6465 32.5253 48.0607 31.9395L38.5148 22.3935C37.929 21.8077 36.9792 21.8077 36.3934 22.3935C35.8076 22.9793 35.8076 23.9291 36.3934 24.5149L44.8787 33.0001L36.3934 41.4854C35.8076 42.0712 35.8076 43.021 36.3934 43.6067C36.9792 44.1925 37.929 44.1925 38.5148 43.6067L48.0607 34.0608ZM19 34.5001L47 34.5001L47 31.5001L19 31.5001L19 34.5001Z" fill="white"/>
</svg>
