<svg width="114" height="24" viewBox="0 0 114 24" fill="none" xmlns="http://www.w3.org/2000/svg">
<path d="M2 10.5C1.17157 10.5 0.5 11.1716 0.5 12C0.5 12.8284 1.17157 13.5 2 13.5V10.5ZM113.061 13.0607C113.646 12.4749 113.646 11.5251 113.061 10.9393L103.515 1.3934C102.929 0.807611 101.979 0.807611 101.393 1.3934C100.808 1.97919 100.808 2.92893 101.393 3.51472L109.879 12L101.393 20.4853C100.808 21.0711 100.808 22.0208 101.393 22.6066C101.979 23.1924 102.929 23.1924 103.515 22.6066L113.061 13.0607ZM2 13.5H112V10.5H2V13.5Z" fill="#B81034"/>
</svg>
