<svg width="110" height="30" viewBox="0 0 110 30" fill="none" xmlns="http://www.w3.org/2000/svg">
<path d="M5.32477 6.19678V10.4529L23.3835 10.4608V6.19678H5.32477Z" fill="white"/>
<path d="M86.4111 23.7891H81.3906L76.0678 14.8059L70.8063 23.7891H65.7384L67.5917 20.6542L76.0678 6.22461L84.5637 20.6542L86.4111 23.7891Z" fill="white"/>
<path d="M104.675 13.1348H96.1122V17.2156H104.675V13.1348Z" fill="white"/>
<path d="M65.5191 14.4215C65.6159 17.5978 64.1854 21.121 60.7298 22.8806C59.4538 23.5161 58.0444 23.8396 56.6182 23.8244H47.5651V12.12L51.7656 12.1377V19.517H56.9145C60.5302 19.3752 61.0736 16.6165 61.1427 15.05C61.1961 13.8776 60.5065 11.8165 58.4952 10.9555C57.718 10.6329 56.8831 10.4713 56.0413 10.4806H47.5651V6.19092H56.7782C62.263 6.41555 65.3986 10.5732 65.5191 14.4215Z" fill="white"/>
<path d="M14.3996 12.0864H5.32477V15.2234H5.33465V23.8066H9.49763V16.384H14.3996V12.0864Z" fill="white"/>
<path d="M44.5126 10.4551V6.17529H26.5862V10.4472L44.5126 10.4551Z" fill="white"/>
<path d="M30.8223 19.5169L30.8263 16.3485H38.6168V12.0903L26.5665 12.0943L26.5744 23.8184L44.556 23.8243V19.5169H30.8223Z" fill="white"/>
<path d="M97.6533 18.8215C96.8995 19.314 96.0176 19.5757 95.1164 19.5742C94.5197 19.5867 93.9264 19.4803 93.3714 19.2611C92.8164 19.042 92.3108 18.7146 91.8844 18.2981C91.4579 17.8816 91.119 17.3844 90.8877 16.8357C90.6564 16.2869 90.5373 15.6976 90.5373 15.1023C90.5373 14.507 90.6564 13.9177 90.8877 13.3689C91.119 12.8201 91.4579 12.3229 91.8844 11.9064C92.3108 11.49 92.8164 11.1626 93.3714 10.9434C93.9264 10.7243 94.5197 10.6179 95.1164 10.6304C96.0176 10.6289 96.8995 10.8906 97.6533 11.3831H103.077C102.354 9.89078 101.223 8.63231 99.8152 7.75248C98.4069 6.87264 96.7782 6.40719 95.1164 6.40968C90.2599 6.40968 86.3064 10.3092 86.3064 15.1013C86.3064 19.8934 90.258 23.7949 95.1164 23.7949C96.7782 23.7974 98.4069 23.3319 99.8152 22.4521C101.223 21.5723 102.354 20.3138 103.077 18.8215H97.6533Z" fill="white"/>
</svg>
